<?xml version="1.0" standalone="no"?>
<!DOCTYPE svg PUBLIC "-//W3C//DTD SVG 20010904//EN"
 "http://www.w3.org/TR/2001/REC-SVG-20010904/DTD/svg10.dtd">
<svg version="1.0" xmlns="http://www.w3.org/2000/svg"
 width="809.000000pt" height="809.000000pt" viewBox="0 0 809.000000 809.000000"
 preserveAspectRatio="xMidYMid meet">
<metadata>
Created by potrace 1.11, written by Peter Selinger 2001-2013
</metadata>
<g transform="translate(0.000000,809.000000) scale(0.100000,-0.100000)"
fill="#000000" stroke="none">
<path d="M3839 7234 c19 -9 52 -16 73 -17 l39 -2 -3 -45 c-3 -39 -6 -45 -23
-42 -44 8 -99 11 -87 6 6 -3 12 -12 12 -20 0 -9 5 -12 11 -8 6 3 31 6 55 6
l44 -1 2 54 c0 30 1 60 2 66 1 6 -30 12 -79 14 -79 4 -80 4 -46 -11z"/>
<path d="M4691 7214 c0 -11 3 -14 6 -6 3 7 2 16 -1 19 -3 4 -6 -2 -5 -13z"/>
<path d="M4000 7216 c3 -3 25 -9 48 -15 32 -7 42 -6 39 2 -2 7 -23 13 -48 15
-24 2 -41 1 -39 -2z"/>
<path d="M4455 7193 c3 -8 5 -21 5 -29 0 -9 5 -12 10 -9 16 10 12 52 -5 52
-10 0 -14 -6 -10 -14z"/>
<path d="M3810 7190 c-13 -8 -12 -10 3 -10 9 0 17 5 17 10 0 12 -1 12 -20 0z"/>
<path d="M4701 7128 c-2 -66 -4 -68 -74 -51 -83 21 -308 23 -331 4 -9 -8 -45
-16 -79 -18 -88 -5 -117 -19 -117 -54 0 -15 -5 -31 -12 -35 -8 -5 -9 2 -5 25
4 20 3 30 -3 26 -6 -3 -10 -12 -10 -20 0 -8 -8 -19 -17 -24 -17 -10 -17 -10 0
-11 9 0 17 -4 17 -10 0 -5 -6 -10 -14 -10 -7 0 -16 -14 -20 -31 -3 -17 -14
-42 -25 -55 -11 -13 -17 -34 -15 -47 2 -12 -5 -2 -17 22 -25 52 -20 66 55 148
58 64 53 80 -18 62 -25 -6 -46 -16 -46 -21 0 -6 -7 -8 -15 -5 -8 4 -17 2 -20
-3 -3 -5 -19 -8 -35 -8 -19 1 -37 -6 -46 -18 -9 -10 -13 -13 -9 -6 17 33 -37
-1 -120 -76 -58 -52 -59 -52 -84 -35 -76 50 -153 94 -164 92 -26 -3 -48 1 -43
9 2 4 -3 9 -12 10 -9 1 -35 5 -58 8 -38 5 -43 3 -71 -31 -19 -23 -30 -48 -30
-68 -1 -29 0 -30 9 -10 6 12 22 23 39 25 26 4 29 2 29 -23 0 -15 6 -29 13 -32
8 -3 3 -13 -15 -30 -16 -14 -28 -31 -28 -37 0 -5 -9 -10 -19 -10 -11 0 -23 -4
-26 -10 -7 -11 14 -55 22 -46 3 3 0 14 -8 23 -12 16 -11 15 8 -1 13 -10 20
-23 17 -27 -3 -5 0 -9 7 -9 7 0 10 -3 7 -6 -3 -3 -29 5 -58 17 -37 16 -54 19
-59 11 -5 -9 -23 -9 -66 -2 -87 15 -223 11 -241 -7 -7 -8 -18 -12 -23 -9 -5 4
-11 2 -13 -2 -1 -4 -24 -20 -50 -34 -35 -20 -56 -24 -88 -21 -33 4 -49 0 -82
-22 -23 -15 -62 -40 -88 -55 -41 -24 -47 -26 -43 -10 3 10 -1 28 -9 39 -14 20
-16 19 -66 -27 -38 -34 -52 -54 -52 -74 0 -15 5 -30 10 -33 16 -10 12 -21 -26
-67 -20 -23 -48 -60 -61 -82 l-25 -39 23 -30 c18 -25 20 -33 10 -50 -10 -16
-10 -22 3 -35 13 -14 15 -13 11 4 -3 13 6 27 28 43 17 14 26 18 20 11 -18 -20
-16 -30 5 -23 14 5 15 3 4 -8 -14 -15 -16 -33 -3 -24 5 3 16 -4 25 -16 13 -19
13 -24 0 -36 -17 -17 -10 -35 11 -27 8 4 12 11 8 18 -4 6 1 5 10 -3 9 -7 17
-19 17 -25 0 -6 -5 -4 -10 4 -8 12 -10 9 -8 -10 3 -21 -1 -25 -27 -26 -46 -1
-51 -4 -35 -17 8 -7 16 -25 18 -42 2 -16 9 -37 15 -45 11 -13 10 -13 -5 -1
-10 7 -18 21 -18 30 0 9 -7 27 -16 39 -15 22 -15 21 -69 -45 -29 -37 -51 -72
-48 -78 4 -5 3 -7 -2 -3 -9 8 -105 -104 -105 -124 0 -7 7 -23 15 -35 11 -16
12 -22 2 -26 -9 -3 -9 -9 0 -25 11 -19 10 -23 -10 -33 -12 -7 -35 -23 -51 -36
-27 -22 -29 -23 -43 -6 -14 17 -14 17 -9 1 3 -10 9 -25 12 -33 3 -8 2 -15 -3
-15 -4 0 -16 23 -26 50 -22 63 -40 66 -21 3 8 -25 14 -60 13 -77 l-1 -31 -10
30 c-14 39 -13 38 -37 25 -19 -10 -21 -8 -21 23 0 18 5 38 11 44 6 6 9 19 7
28 -3 15 -6 15 -30 -5 -16 -12 -28 -30 -28 -41 0 -16 -6 -20 -27 -18 -33 3
-73 -9 -73 -22 0 -5 -5 -9 -11 -9 -7 0 -5 10 5 25 16 24 16 25 -10 25 -22 0
-25 -3 -20 -22 3 -13 6 -28 6 -34 0 -9 89 -30 111 -26 9 2 3 -109 -8 -149 -6
-20 -17 -51 -26 -68 -9 -18 -13 -39 -10 -48 4 -10 2 -14 -5 -9 -10 6 -121 -41
-132 -56 -4 -4 -30 11 -60 33 -44 33 -55 38 -60 25 -3 -9 -20 -25 -38 -36 -27
-17 -32 -26 -32 -58 0 -37 -2 -39 -31 -39 -34 0 -49 -15 -42 -43 3 -10 -5 -26
-17 -37 -11 -11 -24 -37 -27 -58 -5 -33 -4 -37 11 -32 13 5 15 2 10 -19 -6
-24 -4 -23 32 11 35 34 127 85 151 85 6 0 18 10 27 23 9 12 14 16 11 10 -4
-10 9 -12 52 -11 59 1 121 -14 160 -39 12 -8 27 -12 33 -8 5 3 10 0 10 -7 0
-8 12 -21 28 -30 15 -10 64 -53 109 -97 46 -43 83 -76 83 -73 1 13 30 -32 30
-45 0 -19 -12 -16 -43 13 -15 14 -32 22 -39 18 -6 -4 -8 -3 -5 3 3 5 -2 16
-11 24 -64 53 -103 80 -111 75 -5 -4 -12 -2 -16 4 -3 5 -11 10 -17 10 -6 0 -6
-6 2 -15 7 -8 20 -14 29 -13 8 2 16 -1 16 -7 1 -22 17 -36 36 -30 10 4 19 2
19 -4 0 -5 -13 -8 -29 -6 -23 3 -29 0 -24 -11 6 -16 15 -18 29 -4 11 11 81
-44 77 -60 -2 -6 2 -10 7 -10 6 0 10 -8 10 -17 0 -14 2 -15 9 -4 6 9 11 10 15
2 4 -6 4 -16 0 -23 -5 -8 -2 -9 9 -5 10 3 17 2 18 -3 1 -13 1 -79 0 -85 -1 -2
-12 0 -25 5 -18 6 -26 5 -30 -5 -3 -8 3 -16 12 -18 14 -4 14 -6 -4 -12 -22 -7
-25 -19 -11 -42 5 -7 4 -13 -1 -13 -31 0 14 -69 46 -70 7 0 10 -5 7 -10 -4 -6
0 -23 8 -39 8 -16 12 -41 10 -55 -4 -21 -2 -25 11 -20 9 3 16 1 16 -5 0 -20
-32 -12 -37 10 -4 13 -8 17 -13 9 -5 -8 -30 1 -83 28 -58 31 -77 37 -81 26 -3
-8 -3 -20 0 -28 3 -8 1 -17 -5 -21 -6 -3 -11 -15 -11 -25 0 -14 -5 -18 -17
-13 -10 3 -3 -6 16 -21 19 -14 38 -26 41 -26 4 0 6 -10 6 -22 -1 -20 3 -23 31
-20 24 2 33 -2 37 -16 4 -11 16 -22 28 -25 13 -4 19 -11 15 -21 -3 -8 -2 -18
3 -21 6 -4 10 -1 10 5 0 8 7 9 18 5 9 -4 23 -8 30 -8 16 0 16 -1 -13 -46 -25
-41 -45 -59 -45 -43 0 8 -42 30 -122 64 -19 8 -21 -11 -4 -24 5 -3 -6 -11 -25
-16 -45 -12 -89 16 -89 56 0 16 -12 41 -29 60 -30 32 -55 43 -46 20 3 -8 -5
-14 -22 -15 -16 -1 -44 -5 -63 -8 -49 -10 -28 11 31 30 l44 14 -40 -2 c-33 -2
-39 1 -37 16 2 11 -7 22 -25 30 -37 16 -63 39 -63 54 0 7 -4 13 -10 13 -5 0
-10 -4 -10 -9 0 -20 -43 4 -61 33 -11 19 -19 25 -19 15 0 -25 -26 -44 -37 -26
-4 8 -19 17 -33 21 -14 3 -19 3 -12 0 20 -9 14 -27 -7 -21 -22 5 -31 -10 -31
-52 0 -15 -5 -32 -12 -39 -15 -15 -18 -13 72 -47 41 -15 83 -34 94 -41 17 -12
17 -14 -15 -34 -50 -30 -80 -36 -91 -17 -11 21 -38 11 -38 -14 0 -10 -7 -19
-15 -19 -18 0 -20 -16 -3 -26 7 -4 8 -3 4 4 -4 7 -2 12 5 12 7 0 9 -10 7 -25
-3 -14 -1 -25 3 -25 5 0 9 -10 8 -22 0 -22 -1 -22 -9 -3 -6 14 -9 15 -10 5 -1
-10 -4 -9 -10 5 -8 18 -9 17 -9 -7 -1 -16 3 -28 9 -28 6 0 6 -9 0 -24 -9 -25
-8 -26 34 -38 5 -2 10 5 12 15 1 11 6 22 10 25 4 4 4 -7 1 -25 -4 -18 -2 -35
3 -38 6 -3 6 -15 0 -29 -5 -13 -6 -27 -2 -31 4 -4 -3 -2 -15 4 -22 11 -23 10
-23 -21 0 -18 -11 -51 -25 -73 -25 -41 -33 -85 -15 -85 5 0 9 10 8 23 -2 25
70 117 122 156 25 18 33 19 55 9 25 -11 34 -28 14 -28 -6 0 -4 -7 5 -15 8 -8
22 -15 30 -15 10 0 13 6 10 15 -4 8 -3 15 1 15 12 0 50 -22 72 -43 25 -22 29
-17 12 14 -9 18 -8 19 10 7 12 -7 21 -18 21 -25 0 -7 6 -13 14 -13 10 0 13 16
11 70 -1 39 2 70 6 70 5 0 9 -5 9 -12 0 -6 3 -8 6 -5 4 4 1 13 -6 22 -14 17
-60 21 -60 5 0 -6 -6 -5 -15 2 -12 11 -11 15 7 31 15 13 16 17 5 17 -8 0 -18
7 -21 16 -4 9 -14 14 -24 12 -20 -6 -144 51 -149 68 -4 12 106 74 131 74 10 0
31 -7 47 -16 35 -18 52 -11 24 10 -23 17 -11 36 23 36 29 0 62 -43 62 -80 0
-10 9 -25 19 -32 11 -8 25 -26 32 -42 12 -25 16 -27 58 -22 93 11 206 18 200
12 -3 -3 -16 -7 -29 -9 -36 -6 -34 -57 3 -75 24 -12 26 -15 12 -28 -18 -19 -9
-38 14 -29 41 16 47 14 43 -16 -4 -30 -17 -38 -25 -16 -2 6 -8 8 -13 4 -4 -4
-3 -17 4 -27 23 -37 3 -55 -55 -50 -15 1 -23 -4 -23 -15 0 -9 -4 -14 -9 -11
-4 3 -31 -3 -60 -13 -55 -21 -57 -20 -39 12 20 38 39 50 79 50 26 0 39 5 39
13 0 8 9 13 21 11 12 -1 24 4 27 12 5 14 8 15 -103 -18 -61 -18 -72 -26 -82
-51 -9 -25 -30 -40 -73 -55 -3 -1 -12 -4 -20 -7 -63 -22 -91 -28 -100 -23 -5
3 -10 1 -10 -4 0 -18 -30 -13 -61 10 -19 13 -39 19 -55 16 -18 -3 -24 -1 -20
9 3 9 -2 14 -14 14 -11 0 -20 5 -20 11 0 5 -4 8 -8 5 -5 -3 -27 6 -51 20 -48
27 -58 30 -44 12 12 -17 7 -112 -8 -141 -11 -20 -11 -21 4 -9 14 12 15 10 10
-25 -3 -21 -10 -41 -15 -44 -6 -3 -9 -9 -9 -13 3 -18 -1 -19 -9 -1 -8 18 -9
17 -9 -7 l-1 -28 83 44 c45 24 99 53 120 65 20 11 37 17 37 13 0 -5 -17 -18
-38 -30 -51 -30 -98 -69 -91 -77 4 -3 18 -8 33 -11 14 -2 37 -9 51 -14 37 -14
68 -13 60 3 -4 6 0 4 9 -7 16 -19 26 -16 64 17 l22 20 0 -20 c0 -23 -24 -48
-39 -39 -12 8 -19 -12 -27 -74 -6 -46 -5 -50 15 -50 16 0 23 9 32 44 7 29 17
46 30 49 25 7 33 -7 14 -23 -23 -19 -18 -39 12 -46 23 -6 33 0 75 45 37 40 53
51 68 46 11 -4 20 -2 20 4 0 19 18 12 50 -19 16 -16 30 -26 30 -22 0 5 16 16
35 25 28 14 35 22 35 46 0 37 13 46 40 29 18 -11 20 -19 15 -56 -4 -24 -3 -55
0 -70 9 -35 66 -84 85 -72 12 7 11 14 -9 40 -16 23 -21 39 -16 57 3 15 2 29
-4 32 -6 4 -6 12 -1 20 6 11 18 7 57 -21 44 -32 48 -38 46 -73 -2 -23 -11 -46
-23 -57 -27 -25 -25 -43 3 -44 17 -1 27 6 35 25 9 20 10 21 6 3 -7 -27 4 -82
16 -82 5 0 16 18 26 40 12 27 25 40 38 41 17 1 18 2 3 6 -9 2 -15 9 -12 14 10
15 45 -9 39 -26 -8 -19 0 -19 64 0 51 15 69 36 57 67 -3 8 1 21 10 28 8 7 15
23 15 35 0 44 -33 167 -46 172 -9 3 -11 15 -7 35 5 25 -1 36 -38 76 -25 26
-55 59 -67 73 l-23 26 46 45 c29 30 45 54 45 70 0 47 -20 49 -89 7 -36 -21
-73 -39 -83 -39 -22 0 -24 33 -6 112 13 55 34 82 52 67 6 -5 34 -25 63 -44 46
-30 52 -32 50 -15 -1 11 -5 20 -9 20 -4 0 -8 5 -8 12 0 6 9 3 20 -7 11 -10 20
-24 20 -32 0 -7 5 -13 11 -13 8 0 9 12 4 38 -4 20 -9 52 -10 69 -2 18 -8 56
-14 85 -21 107 -25 134 -23 156 2 13 -2 30 -8 37 -12 15 -19 145 -7 145 4 0 7
-9 7 -19 0 -11 5 -23 10 -26 15 -9 12 8 -10 59 -11 27 -47 73 -83 110 -65 64
-69 73 -82 179 -2 15 -10 38 -19 52 -21 32 -21 31 14 44 37 12 39 28 5 37 -14
3 -25 12 -25 19 0 7 -16 22 -35 32 -19 10 -69 47 -111 82 -42 35 -111 81 -153
103 -106 56 -105 55 -82 114 11 27 22 57 25 67 5 16 14 18 54 14 26 -3 66 -11
89 -18 47 -14 91 -5 143 31 49 33 57 32 138 -25 42 -30 104 -73 137 -95 33
-22 75 -53 93 -70 18 -16 41 -30 50 -30 10 0 23 -5 28 -10 34 -34 85 -13 224
88 142 103 234 187 227 206 -6 14 -1 15 43 4 24 -5 39 -24 60 -77 54 -138 145
-257 216 -283 18 -6 35 -17 38 -24 7 -17 -73 -104 -96 -104 -10 0 -32 7 -48
15 -17 9 -30 11 -30 5 0 -5 6 -10 13 -10 6 0 19 -12 29 -28 9 -15 26 -42 37
-59 12 -19 16 -33 10 -33 -20 0 -77 68 -89 107 -12 37 -55 93 -72 93 -5 0 -4
-9 2 -21 13 -24 4 -41 -10 -19 -8 12 -10 11 -10 -7 0 -12 7 -29 16 -38 9 -8
14 -22 11 -30 -3 -7 -1 -15 4 -17 7 -2 6 -32 -2 -88 -6 -47 -11 -95 -11 -107
0 -13 -4 -20 -9 -17 -5 3 -9 34 -9 70 0 41 -4 63 -10 59 -5 -3 -10 -17 -10
-30 0 -13 -7 -30 -15 -39 -18 -17 -20 -30 -3 -20 11 7 9 -11 -8 -89 -6 -27 -5
-28 22 -25 21 2 34 13 51 43 20 35 23 37 23 16 0 -14 7 -33 17 -43 15 -17 15
-19 -2 -38 -14 -15 -15 -23 -6 -34 9 -11 9 -15 -1 -20 -7 -3 -3 -4 9 -2 13 2
26 0 29 -5 3 -5 1 -9 -3 -9 -5 0 -9 -9 -9 -20 0 -11 2 -20 4 -20 8 0 32 30 32
40 0 8 7 9 18 5 9 -4 37 -14 61 -23 l44 -15 -57 -29 c-50 -25 -57 -32 -52 -51
17 -58 19 -80 8 -73 -7 4 -12 14 -12 22 0 8 -4 14 -10 14 -5 0 -10 9 -10 20 0
27 -18 25 -22 -2 -2 -15 -13 -25 -36 -32 -20 -5 -31 -14 -28 -22 3 -7 -2 -15
-10 -18 -8 -3 -13 -2 -10 3 3 5 -1 12 -10 15 -8 3 -12 2 -9 -4 3 -6 1 -10 -5
-10 -18 0 -21 24 -10 86 25 140 25 137 -4 132 -14 -3 -26 -1 -26 5 0 6 -8 3
-18 -7 -19 -17 -62 -181 -66 -253 -1 -21 -6 -50 -10 -64 -5 -19 -3 -31 9 -43
15 -15 15 -19 2 -39 -8 -12 -18 -37 -21 -54 -6 -28 -3 -37 27 -67 21 -20 37
-49 41 -70 4 -20 10 -35 14 -32 4 2 8 -12 9 -32 0 -21 4 -72 8 -115 5 -65 4
-78 -9 -83 -9 -3 -16 -10 -16 -16 0 -5 6 -6 13 -2 8 5 8 3 -2 -9 -7 -9 -11
-30 -9 -47 3 -16 1 -30 -3 -30 -10 0 -46 -120 -54 -180 -4 -25 -10 -54 -15
-65 -32 -79 -42 -95 -60 -95 -25 0 -30 -10 -31 -62 -1 -23 -17 -88 -36 -143
-27 -80 -35 -122 -40 -207 -3 -60 -4 -108 -1 -108 3 0 11 44 18 98 14 114 27
172 51 227 l18 40 2 -80 c2 -44 3 -90 3 -102 0 -12 5 -21 10 -20 5 1 16 -11
25 -28 9 -16 18 -32 21 -35 24 -24 70 -103 70 -119 0 -12 -9 -48 -20 -81 -11
-33 -22 -68 -24 -77 -1 -10 -6 -25 -9 -33 -4 -8 -18 -69 -32 -135 -29 -137
-53 -215 -65 -215 -5 0 -8 -16 -6 -36 2 -19 -1 -56 -7 -81 -8 -40 -7 -48 8
-59 11 -9 19 -29 20 -56 1 -24 7 -55 13 -70 6 -15 8 -30 3 -32 -5 -3 -6 -17
-3 -31 4 -22 7 -24 20 -13 13 11 14 10 4 -9 -19 -35 -15 -44 14 -33 20 8 25 7
22 -2 -3 -8 -26 -14 -56 -16 -43 -2 -52 -6 -52 -21 0 -10 7 -24 15 -31 9 -7
13 -20 10 -28 -4 -12 -3 -13 9 -3 15 13 40 6 32 -8 -3 -4 20 -18 51 -32 l55
-24 -113 -10 c-109 -10 -114 -11 -117 -34 -2 -13 1 -28 7 -34 20 -20 2 -153
-28 -206 -11 -20 -11 -25 2 -32 12 -7 13 -17 7 -45 -7 -28 -4 -43 12 -70 21
-36 71 -69 89 -59 13 9 -8 35 -27 35 -8 0 -14 7 -14 15 0 12 12 8 48 -17 26
-17 53 -38 60 -45 17 -17 26 -17 19 0 -3 7 3 13 13 13 10 0 16 -5 14 -11 -3
-6 7 -17 21 -25 19 -10 31 -11 50 -2 29 13 48 -5 21 -20 -12 -7 -15 -19 -11
-48 2 -21 0 -42 -5 -45 -6 -4 -8 -11 -4 -16 3 -5 1 -16 -6 -24 -15 -18 0 -25
43 -18 32 5 36 9 34 33 -1 16 -6 28 -10 27 -4 -1 -9 26 -11 60 -3 51 -1 62 13
66 10 2 28 -4 40 -14 18 -15 22 -25 17 -46 l-7 -28 26 29 c14 17 25 23 25 15
0 -11 2 -11 10 1 5 8 10 10 10 5 0 -6 -6 -17 -12 -24 -11 -10 -10 -14 4 -22 9
-5 14 -17 11 -28 -3 -10 0 -22 6 -25 6 -4 11 0 11 8 0 9 8 16 18 15 10 0 12
-3 5 -6 -7 -2 -13 -11 -13 -19 0 -9 -11 -14 -30 -14 -21 0 -28 -4 -24 -14 9
-24 98 6 131 44 46 52 73 110 73 153 0 23 5 66 11 96 12 58 3 165 -23 279 -10
45 -10 55 2 62 13 8 12 11 -2 22 -19 14 -58 107 -63 150 -3 24 0 28 22 28 19
0 23 3 15 12 -5 7 -13 38 -17 68 -3 30 -9 64 -12 75 -4 16 -3 18 8 8 7 -7 28
-13 47 -13 34 0 35 0 28 37 -3 21 -6 44 -6 52 0 8 -7 11 -20 8 -18 -5 -18 -3
-4 17 20 32 33 287 13 269 -7 -7 -18 -13 -25 -13 -18 0 -24 38 -8 51 8 6 14
17 14 23 0 6 18 33 40 60 22 26 40 52 40 57 0 4 13 23 28 41 38 44 79 131 93
198 6 30 23 75 38 100 23 40 27 60 32 170 4 69 10 149 14 178 7 49 6 52 -14
52 -11 0 -21 -3 -21 -7 0 -5 -5 -35 -10 -68 -11 -63 -30 -191 -32 -212 -1 -9
-5 -10 -15 -2 -10 9 -13 8 -13 -5 0 -9 -8 -16 -19 -16 -10 0 -24 -7 -31 -15
-7 -9 -19 -14 -27 -11 -8 3 -11 1 -8 -4 3 -6 1 -10 -5 -10 -6 0 -10 8 -8 18 2
9 10 16 16 15 7 -2 12 6 12 18 0 11 4 18 8 15 5 -3 19 15 31 39 20 41 21 46 7
61 -20 19 -42 9 -25 -12 9 -11 8 -14 -6 -14 -13 0 -16 5 -11 23 4 12 11 47 18
77 8 41 18 62 42 82 17 15 36 28 42 28 11 0 38 49 31 56 -2 2 -20 -8 -40 -22
-36 -24 -63 -25 -51 -1 3 7 -2 3 -11 -8 -17 -19 -17 -18 -10 20 12 73 16 100
19 147 2 25 6 50 9 55 2 4 3 16 2 26 -2 9 2 17 8 17 7 0 6 5 -3 11 -12 9 -12
10 3 5 10 -3 25 -6 33 -6 21 0 17 -28 -6 -40 -21 -11 -28 -54 -10 -65 5 -3 7
-20 4 -38 l-5 -32 15 25 c8 14 15 21 16 17 0 -5 7 -1 16 7 8 9 13 20 10 25 -4
5 -1 11 6 13 7 3 13 32 15 79 1 41 11 106 22 144 18 67 19 68 21 30 l2 -40 10
40 c5 22 14 92 19 155 5 63 16 137 24 164 8 26 15 70 15 96 l0 47 63 7 c34 4
77 10 96 12 44 7 38 -17 -7 -31 -23 -6 -32 -15 -31 -30 0 -31 32 -103 63 -141
l28 -35 73 5 c56 4 76 1 86 -10 6 -8 20 -14 31 -14 10 0 17 -4 13 -9 -3 -5 5
-30 17 -56 l22 -45 14 25 c7 14 10 31 6 37 -4 7 -3 8 4 4 8 -5 12 1 12 14 0
19 1 20 16 6 9 -9 32 -16 55 -16 24 0 38 -4 34 -10 -3 -5 -1 -10 5 -10 7 0 10
7 7 15 -4 8 -2 17 3 20 6 4 10 1 10 -6 0 -8 4 -8 15 1 12 10 24 10 55 1 22 -6
40 -16 40 -22 0 -6 9 -8 20 -4 30 10 59 -3 74 -34 14 -26 13 -28 -15 -45 -30
-18 -49 -15 -49 9 0 19 -37 39 -42 23 -4 -12 -48 -3 -116 23 -45 17 -61 11
-68 -26 -3 -19 -11 -35 -16 -35 -6 0 -8 -6 -5 -14 3 -7 1 -31 -5 -53 -8 -35
-6 -45 16 -86 14 -25 26 -53 26 -63 0 -13 3 -14 15 -4 12 10 19 1 44 -54 16
-36 39 -75 50 -87 12 -13 21 -26 21 -31 0 -10 87 -139 103 -153 11 -9 34 -65
57 -139 9 -28 9 -28 -10 -11 -11 10 -27 40 -36 69 -21 65 -53 118 -66 110 -5
-4 -24 4 -41 16 l-32 23 29 -31 c17 -18 36 -32 43 -32 7 0 13 -5 13 -11 0 -6
-3 -9 -7 -7 -45 22 -66 39 -112 94 -58 68 -71 69 -71 5 0 -43 50 -131 99 -173
21 -18 61 -70 89 -116 76 -122 125 -177 175 -193 l42 -13 -50 -6 c-51 -5 -46
-11 23 -25 18 -4 30 -11 26 -16 -3 -5 0 -9 5 -9 6 0 11 -11 11 -25 0 -28 -11
-31 -60 -13 -28 9 -35 9 -46 -6 -7 -10 -11 -26 -9 -37 2 -10 0 -19 -6 -19 -5
0 -9 -9 -9 -20 0 -11 4 -20 9 -20 5 0 11 -11 13 -25 6 -27 -9 -33 -43 -15 -18
10 -19 7 -19 -37 1 -50 29 -123 30 -75 0 12 4 22 10 22 5 0 7 -7 4 -15 -4 -11
1 -15 17 -15 20 0 31 -14 63 -74 27 -51 37 -82 33 -97 -5 -19 3 -33 43 -69 53
-51 101 -70 195 -77 48 -4 63 -2 74 11 7 9 26 16 41 16 19 0 42 15 78 51 l51
51 -2 97 c-3 105 -12 126 -91 219 -20 24 -36 50 -36 58 0 8 -6 17 -14 20 -7 3
-11 14 -9 28 3 13 -2 30 -10 38 -17 16 -6 45 12 34 16 -10 14 7 -9 64 -24 60
-25 70 -6 70 14 0 96 77 94 88 -1 7 18 57 27 71 2 4 0 12 -4 19 -5 9 -16 1
-34 -25 l-27 -38 0 53 c0 32 8 69 20 94 18 37 19 88 1 88 -3 0 -17 -28 -31
-61 l-24 -62 -12 66 c-14 72 -29 107 -46 107 -6 0 0 11 13 24 50 50 50 51 25
98 -14 26 -30 42 -40 42 -11 -1 -16 6 -16 22 0 13 -11 34 -25 46 -14 12 -25
28 -25 35 0 7 -2 13 -4 13 -2 0 -49 -20 -103 -44 -140 -63 -331 -122 -351
-109 -21 13 -34 64 -30 116 3 38 8 45 58 79 30 21 60 41 65 46 16 13 181 92
192 92 6 0 31 9 56 20 l46 20 -4 78 c-9 155 -71 310 -235 582 -39 66 -60 90
-92 108 -23 12 -47 22 -55 22 -7 0 -13 5 -13 11 0 6 -9 8 -20 4 -29 -9 -26 28
5 69 35 46 31 52 -12 19 l-38 -28 28 33 c15 19 27 40 27 48 0 7 9 28 20 46 21
35 26 68 10 68 -5 0 -10 -5 -10 -12 0 -6 -2 -9 -5 -6 -3 3 0 17 6 31 14 31 -4
87 -27 87 -15 0 -17 10 -8 34 3 9 15 16 25 16 12 0 16 -5 13 -14 -4 -11 5 -14
42 -14 51 0 109 32 100 55 -3 7 8 23 24 35 17 12 30 25 30 29 0 3 39 44 86 90
219 214 256 252 266 281 10 27 12 29 23 15 7 -9 14 -14 17 -12 7 7 26 -84 38
-176 5 -41 14 -88 20 -104 24 -63 48 -165 39 -165 -5 0 -9 -10 -9 -21 0 -12
-8 -27 -17 -34 -15 -11 -15 -17 -5 -39 7 -15 12 -36 12 -46 0 -11 5 -20 10
-20 6 0 10 -7 10 -16 0 -8 -4 -12 -10 -9 -13 8 -13 -36 1 -55 9 -13 10 -12 5
2 -3 11 -1 15 9 12 17 -7 25 -37 25 -102 0 -33 4 -51 10 -47 6 3 10 0 10 -7 0
-10 3 -9 9 1 8 12 12 12 25 2 13 -11 15 -31 6 -61 -1 -3 -1 -38 0 -77 1 -70 0
-73 -25 -83 -14 -5 -37 -10 -50 -10 -31 0 -40 -30 -26 -84 6 -22 18 -81 26
-130 8 -49 17 -92 20 -94 3 -3 5 20 5 52 0 69 15 66 26 -7 4 -28 8 -54 9 -57
1 -3 5 -29 9 -58 4 -28 12 -50 16 -47 11 7 18 -46 25 -195 7 -137 20 -180 51
-180 12 0 24 4 26 9 2 5 20 12 41 16 32 6 36 5 31 -9 -4 -10 -24 -18 -55 -22
-45 -6 -76 -22 -50 -25 6 -1 17 -2 24 -3 6 -1 11 -9 11 -19 -1 -13 6 -17 32
-17 18 0 36 -5 40 -12 5 -8 -5 -9 -34 -5 -23 3 -42 1 -42 -4 0 -5 9 -9 19 -9
15 0 22 -11 30 -50 6 -28 11 -62 11 -75 0 -18 4 -22 19 -18 15 4 20 -1 24 -24
4 -28 4 -28 6 4 1 29 4 32 30 30 28 -2 30 -4 27 -40 -2 -20 2 -41 8 -44 18
-12 156 -14 156 -3 0 5 9 10 20 10 12 0 20 7 20 18 1 9 7 28 14 40 13 24 13
24 50 -28 22 -30 40 -68 42 -89 3 -22 1 -31 -4 -23 -7 10 -11 10 -21 -1 -9
-12 -5 -16 24 -21 21 -4 35 -13 35 -22 0 -19 -60 -9 -77 13 -16 21 -17 0 -2
-28 7 -15 7 -24 -2 -35 -9 -11 -8 -14 10 -14 14 0 21 6 21 19 0 13 6 17 23 15
24 -5 70 25 50 33 -7 2 -10 17 -7 36 5 35 0 46 -31 63 -11 6 -34 35 -51 64
l-32 52 38 34 c20 19 45 34 54 34 19 0 22 16 4 23 -10 3 -9 15 5 53 9 27 17
62 17 78 0 25 2 27 16 15 9 -7 29 -32 45 -56 l30 -43 -33 -20 c-40 -24 -44
-25 -57 -3 -5 10 -13 15 -16 11 -4 -4 2 -19 14 -34 29 -37 28 -56 -4 -48 -19
5 -30 0 -49 -23 -22 -26 -23 -29 -9 -45 9 -10 20 -18 25 -18 5 0 7 8 4 18 -3
9 -2 23 3 31 7 10 12 8 25 -10 16 -23 16 -23 16 -2 0 12 6 28 14 36 8 8 12 23
10 35 -4 13 2 25 17 36 33 23 48 20 60 -11 5 -14 23 -42 40 -61 34 -38 34 -54
-1 -62 l-24 -6 24 -17 c13 -9 27 -17 31 -17 8 0 5 88 -4 96 -4 4 1 13 11 20
16 12 16 13 -3 14 -15 0 -17 2 -6 9 8 5 12 18 8 30 -7 29 1 26 13 -4 13 -33
24 -32 55 8 23 31 24 37 13 68 -6 19 -22 47 -35 63 -18 22 -21 31 -12 42 15
19 4 45 -16 38 -17 -7 -58 24 -49 37 3 5 -3 6 -12 2 -12 -4 -15 -2 -12 8 3 8
15 13 29 11 22 -2 22 -2 5 11 -18 13 -18 15 -1 47 14 27 15 40 7 64 -6 17 -14
58 -18 90 -5 46 -4 57 6 51 9 -6 10 -1 5 16 -9 31 -23 45 -32 34 -5 -4 -3 -10
3 -12 13 -4 6 -50 -11 -76 -12 -17 -13 -17 -19 -1 -4 10 -1 21 6 26 10 6 10
10 -2 18 -8 5 -18 11 -22 12 -4 2 -3 30 2 64 8 50 7 70 -8 114 l-18 53 -19
-29 -19 -29 -6 24 c-9 37 -30 38 -30 2 0 -23 5 -31 18 -31 15 -1 15 -2 2 -13
-8 -7 -21 -24 -27 -39 -16 -35 -28 -35 -42 0 -10 25 -10 23 -5 -13 4 -36 1
-43 -32 -75 -20 -19 -34 -28 -32 -20 3 8 -8 30 -25 48 l-31 32 39 40 c40 41
60 49 68 28 3 -7 6 4 6 24 1 20 7 41 14 45 17 10 87 124 87 141 0 7 -16 66
-35 132 -19 66 -35 124 -35 130 0 20 -31 43 -60 47 -23 2 -36 -6 -69 -45 -42
-51 -117 -109 -127 -99 -3 3 7 12 23 20 54 28 125 118 150 187 12 36 23 77 23
93 0 23 -4 27 -28 27 -16 0 -55 -9 -87 -20 -32 -11 -68 -20 -80 -20 -24 0 -73
47 -72 70 0 8 -3 47 -7 87 l-7 71 58 17 c125 35 183 64 183 92 0 12 6 28 13
35 20 19 41 159 42 270 0 74 3 98 13 98 7 0 11 4 8 9 -4 5 2 7 12 5 33 -9 89
23 102 58 30 84 21 312 -14 347 -13 12 -18 12 -38 -1 -26 -17 -87 -28 -93 -17
-3 4 11 10 30 13 19 4 41 14 50 22 37 38 -1 154 -74 223 -25 25 -40 41 -33 37
6 -4 12 -3 12 3 0 17 -60 56 -170 112 -58 30 -108 59 -112 64 -5 6 -8 5 -8 -2
0 -9 -16 -13 -45 -13 -32 0 -43 4 -39 13 3 9 -5 13 -27 12 -19 0 -34 -6 -37
-14 -3 -10 1 -12 17 -8 11 3 21 1 21 -4 0 -19 -49 -9 -55 12 -4 12 -12 18 -21
15 -8 -3 -14 -1 -14 4 0 14 45 23 74 16 13 -3 26 -2 28 4 2 6 17 6 43 -2 22
-6 46 -11 53 -9 13 2 58 -16 135 -53 26 -13 47 -20 47 -15 0 35 -164 104 -272
115 -35 3 -89 1 -122 -4 -84 -13 -91 -10 -112 61 -10 34 -17 66 -16 71 2 6 -3
28 -11 50 -8 23 -18 53 -21 68 -5 20 -23 36 -80 67 -77 43 -92 48 -80 29 4 -7
3 -8 -5 -4 -6 4 -9 11 -6 16 3 5 -8 16 -24 25 -36 18 -44 19 -35 3 4 -7 -4 -3
-18 10 -13 12 -27 22 -31 22 -13 0 -116 50 -121 59 -3 5 -27 17 -54 26 -46 17
-47 18 -44 55 2 21 2 46 -1 56 -3 11 -5 2 -6 -18z m-350 -123 c38 -34 57 -40
124 -35 40 3 24 -12 -17 -17 -72 -7 -234 -35 -269 -46 -36 -11 -39 -15 -44
-57 -3 -25 -10 -52 -15 -61 -5 -9 -6 -35 -3 -59 4 -30 2 -45 -8 -51 -9 -5 -10
-9 -2 -9 6 0 10 -8 8 -17 -2 -10 -4 -18 -6 -18 -1 0 -3 -49 -5 -110 -2 -113
-14 -164 -36 -166 -7 0 -32 0 -56 1 -45 2 -53 -12 -22 -37 17 -14 17 -14 -27
-17 -18 -1 -33 1 -33 6 0 4 4 8 8 8 4 0 8 9 9 20 1 11 -2 20 -7 20 -8 0 6 65
18 85 4 6 5 17 4 25 -1 8 6 73 17 143 11 70 18 134 15 142 -3 8 13 23 45 41
49 28 50 30 57 84 4 30 12 71 19 90 11 33 16 36 81 51 97 24 102 23 145 -16z
m-331 6 c0 -8 -38 -61 -51 -71 -18 -14 -30 -112 -16 -127 12 -11 8 -24 -5 -17
-10 6 -10 4 0 -7 6 -7 12 -18 12 -23 0 -6 -5 -4 -10 4 -8 13 -10 13 -10 -2 0
-17 -2 -17 -58 -4 -24 6 -31 11 -23 19 7 7 5 14 -7 23 -16 12 -15 13 5 14 12
0 24 -6 26 -12 4 -10 6 -10 6 0 1 18 -40 32 -55 18 -8 -7 -8 -13 -2 -17 7 -4
6 -9 -1 -13 -6 -4 -16 -4 -23 0 -7 5 -9 2 -6 -7 3 -8 3 -56 -1 -106 l-6 -92
25 -7 c14 -4 30 -6 37 -5 6 1 15 -4 19 -10 5 -9 2 -10 -10 -6 -10 4 -15 3 -11
-3 3 -5 17 -9 30 -8 19 2 26 10 31 34 4 22 11 31 22 29 19 -2 19 -5 7 -148 -9
-95 -20 -123 -45 -106 -13 9 -12 10 3 5 9 -3 17 -1 17 4 0 6 -8 11 -17 11 -34
3 -58 6 -90 13 -30 7 -34 5 -44 -21 l-11 -28 -15 44 c-11 32 -12 46 -3 55 8 8
10 6 5 -9 -5 -13 -4 -16 2 -8 8 11 9 34 4 81 0 6 -12 12 -26 12 l-25 0 0 -111
c0 -92 -4 -123 -26 -187 -14 -42 -32 -83 -41 -90 -11 -8 -18 -29 -19 -60 -4
-129 -8 -172 -13 -172 -3 0 -7 -20 -8 -45 -3 -64 -38 -138 -84 -174 -21 -18
-39 -38 -39 -46 0 -8 -5 -15 -10 -15 -9 0 22 73 51 120 34 56 71 160 58 160
-6 0 -5 9 1 21 13 23 21 126 19 244 -1 93 -3 112 -22 180 -14 49 -14 48 -11
-70 2 -66 1 -111 -2 -100 -4 11 -11 25 -16 32 -5 7 -7 21 -3 32 8 25 -5 97
-15 82 -12 -20 -41 28 -79 128 l-20 53 22 -5 c21 -6 21 -6 3 8 -11 8 -14 15
-8 15 7 0 12 9 12 20 0 11 -6 19 -12 18 -7 -2 -14 8 -16 22 -2 14 -10 44 -18
68 -8 23 -14 50 -14 58 0 26 18 6 25 -29 18 -80 46 -83 39 -3 l-3 41 9 -44
c12 -56 17 -60 30 -27 6 16 15 24 21 20 8 -4 9 1 4 16 -5 15 -4 20 4 16 6 -4
11 -14 11 -22 0 -9 5 -12 11 -8 6 3 15 1 19 -6 5 -8 8 16 9 55 0 68 14 105 27
72 12 -32 56 -13 78 34 3 8 4 -7 1 -33 -3 -34 -1 -48 10 -52 8 -3 15 -11 15
-18 1 -7 7 -26 15 -43 15 -29 15 -29 12 28 -3 39 0 57 7 54 6 -3 11 6 11 19 0
15 -6 24 -15 24 -13 0 -13 1 0 10 8 5 11 13 6 17 -11 11 -30 11 -38 -2 -5 -6
-8 -5 -8 3 0 7 9 16 19 20 11 4 21 12 21 17 1 6 18 27 37 49 30 32 52 44 137
71 116 38 116 38 116 26z m800 -51 c11 -7 12 -12 3 -21 -6 -6 -9 -18 -6 -26 5
-12 -2 -13 -33 -7 -22 3 -43 11 -49 17 -7 7 -4 8 8 4 13 -5 21 0 29 18 12 27
24 30 48 15z m-235 -10 c3 -5 -1 -10 -9 -10 -9 0 -16 5 -16 10 0 6 4 10 9 10
6 0 13 -4 16 -10z m388 -110 c12 0 52 -73 47 -86 -1 -3 20 -27 47 -53 47 -44
73 -85 88 -141 6 -22 3 -20 -25 13 -34 39 -53 48 -44 20 4 -14 2 -13 -7 2 -15
24 -30 35 -40 29 -4 -2 -23 3 -43 11 -19 8 -51 15 -71 15 -19 0 -58 9 -87 20
-29 11 -60 20 -69 20 -23 0 -32 -29 -17 -48 11 -13 10 -15 -3 -10 -11 4 -21
-2 -29 -18 -8 -13 -18 -24 -23 -24 -5 0 -4 6 2 14 9 11 7 15 -8 19 -14 3 -18
0 -15 -17 2 -11 -3 -4 -12 17 -9 20 -21 37 -25 37 -12 0 -11 -31 1 -50 5 -9 5
-19 -2 -27 -8 -10 -7 -18 4 -31 9 -9 18 -37 22 -61 6 -39 5 -43 -9 -31 -27 22
1 -39 43 -95 36 -47 42 -51 102 -62 36 -6 107 -15 157 -19 l93 -7 36 76 c32
67 35 83 32 140 l-3 64 41 -46 c77 -85 114 -138 114 -161 0 -19 -18 -10 -25
13 -6 21 -7 21 -20 -8 -11 -25 -11 -33 1 -52 19 -30 18 -36 -5 -30 -17 4 -18
2 -11 -18 6 -14 5 -38 -2 -62 -7 -21 -11 -41 -10 -46 1 -4 -10 -12 -25 -18
-20 -7 -24 -12 -14 -18 10 -7 8 -10 -8 -16 -13 -4 -25 -4 -29 -1 -3 4 2 44 11
89 15 74 24 227 12 216 -4 -5 -44 -199 -50 -244 -1 -11 -5 -39 -9 -62 -5 -29
-4 -43 3 -43 6 0 11 5 11 11 0 6 6 9 12 7 7 -3 35 4 63 15 27 11 64 20 80 21
l30 1 -3 -60 c-4 -71 -30 -115 -145 -242 -40 -45 -90 -105 -110 -135 l-37 -54
-103 8 c-56 4 -154 14 -217 22 -117 14 -185 12 -174 -6 4 -6 1 -8 -7 -6 -8 3
-13 12 -11 21 1 9 -8 21 -20 28 l-23 12 20 -23 20 -23 -25 13 -25 13 28 -30
c15 -16 27 -40 27 -54 -1 -22 -5 -20 -46 25 -41 44 -45 54 -41 88 2 20 1 35
-3 33 -12 -7 -29 84 -26 135 4 61 5 64 12 57 3 -3 16 -2 29 3 17 7 25 5 29 -6
3 -8 11 -14 17 -14 8 0 7 5 -2 16 -7 9 -18 24 -24 34 -22 38 -52 77 -96 125
-79 85 -101 114 -94 125 4 6 35 24 71 40 35 16 64 31 64 34 0 2 -5 17 -11 33
l-10 28 -16 -33 c-15 -30 -57 -62 -83 -62 -6 0 -8 10 -4 26 5 20 4 25 -5 20
-7 -5 -11 -20 -9 -34 4 -37 -22 -36 -35 1 -9 29 -5 42 46 132 40 73 57 91 66
76 6 -9 10 -3 13 20 3 19 2 36 -1 39 -4 3 -6 11 -5 18 1 6 2 17 3 23 0 5 4 8
9 6 4 -3 8 5 8 18 2 20 40 70 54 70 3 0 16 8 30 17 14 10 66 27 115 39 150 35
276 23 486 -47 10 -4 16 1 16 13 0 10 -3 20 -7 23 -3 3 -17 26 -29 53 -13 26
-29 47 -36 47 -7 0 -12 12 -12 28 0 15 2 21 4 15 3 -7 10 -13 16 -13z m-1623
-51 c0 -5 -7 -9 -15 -9 -9 0 -12 6 -9 15 6 15 24 11 24 -6z m-310 -114 c7 -9
14 -28 15 -43 1 -20 7 -28 24 -30 20 -3 22 -1 16 15 -4 10 -10 28 -12 41 -5
19 -1 22 30 22 19 0 40 -7 47 -15 11 -13 8 -15 -18 -15 -29 0 -30 -1 -22 -30
l9 -30 -65 0 c-48 0 -66 -4 -70 -15 -4 -8 -10 -13 -14 -10 -5 3 -11 1 -15 -5
-3 -5 -1 -10 6 -10 9 0 9 -3 0 -14 -7 -8 -11 -25 -10 -38 6 -66 -10 -86 -88
-113 l-36 -12 -23 46 c-29 56 -30 82 -5 105 12 11 17 25 13 39 -5 20 -4 21 12
8 25 -21 31 -6 12 33 -21 45 -20 50 8 66 36 19 82 -2 90 -41 3 -16 10 -29 15
-29 5 0 5 15 0 38 -5 20 -9 40 -9 45 0 14 77 7 90 -8z m196 -27 c10 -12 14
-18 7 -15 -6 4 -13 0 -15 -9 -2 -11 -8 -7 -21 15 -14 25 -15 31 -4 31 8 0 22
-10 33 -22z m-448 -50 c18 -18 15 -28 -9 -28 -19 0 -21 -4 -15 -37 3 -21 8
-45 10 -53 2 -8 6 -28 10 -45 22 -96 79 -229 125 -294 12 -17 18 -31 12 -31
-5 0 -14 8 -20 18 -5 9 -13 16 -18 16 -4 -1 -19 2 -31 7 -13 5 -28 7 -33 3 -5
-3 -9 0 -9 5 0 6 -7 11 -15 11 -18 0 -20 16 -2 23 6 3 3 6 -8 6 -12 1 -27 -5
-34 -11 -9 -9 -12 -9 -7 -1 7 13 -12 62 -26 64 -4 1 -12 2 -18 3 -5 0 -15 7
-21 14 -7 6 -23 12 -35 12 -12 0 -25 -6 -28 -12 -3 -7 -4 0 -1 15 3 16 3 38 0
48 -6 17 -9 18 -23 7 -9 -7 -13 -8 -9 -2 7 13 -19 28 -33 19 -5 -3 -14 -21
-20 -41 -10 -30 -16 -35 -38 -32 -22 2 -27 8 -28 34 -1 36 11 52 96 123 82 69
92 79 58 58 -45 -28 -45 -19 2 23 42 38 54 44 74 41 20 -4 45 11 40 24 -5 11
4 17 37 24 3 0 10 -4 17 -11z m405 -15 c-7 -2 -19 -2 -25 0 -7 3 -2 5 12 5 14
0 19 -2 13 -5z m-703 -47 c0 -2 -8 -10 -17 -17 -16 -13 -17 -12 -4 4 13 16 21
21 21 13z m1383 -191 c-7 -21 -12 -19 -10 4 0 11 5 18 9 15 4 -3 5 -11 1 -19z
m-888 -3 c-14 -10 -18 -42 -6 -42 6 0 8 -7 5 -15 -4 -9 1 -18 11 -21 11 -5 13
-9 6 -14 -8 -5 -7 -15 4 -36 20 -39 19 -47 -5 -34 -11 6 -18 15 -15 20 3 5 -5
10 -17 12 -13 2 -23 8 -23 15 0 6 -3 15 -7 19 -5 4 -8 -1 -8 -12 0 -11 -3 -15
-8 -8 -4 6 -16 14 -26 17 -10 4 -16 10 -12 14 3 3 -1 15 -11 25 -13 14 -13 18
-2 19 8 0 30 11 49 24 30 21 92 37 65 17z m915 -13 c0 -8 6 -7 16 2 15 12 16
11 9 -11 -4 -14 -12 -28 -18 -31 -5 -4 -6 -12 -3 -18 9 -14 0 -14 -25 -1 -18
10 -24 4 -20 -22 0 -5 -3 -8 -9 -8 -11 0 -13 30 -4 55 5 13 9 14 15 4 10 -17
20 -8 22 20 1 21 17 30 17 10z m-70 -53 c0 -14 -7 -31 -15 -39 -8 -8 -11 -18
-7 -21 3 -4 -2 -4 -12 0 -12 5 -14 9 -6 14 6 4 10 14 8 21 -2 12 19 47 30 49
1 0 2 -11 2 -24z m181 2 c1 -7 1 -17 0 -22 -1 -4 10 -5 24 -2 19 5 25 3 25 -9
0 -10 -5 -13 -12 -9 -7 5 -8 3 -3 -6 4 -7 2 -16 -6 -21 -8 -5 -9 -9 -3 -9 7 0
10 -12 7 -27 -11 -77 -27 -149 -35 -159 -5 -8 -3 -18 7 -28 14 -14 15 -18 2
-31 -13 -12 -17 -12 -32 5 -10 11 -38 27 -64 36 -25 10 -49 20 -54 24 -4 3 4
42 18 86 13 43 29 98 35 122 6 23 15 42 21 42 6 0 8 4 5 8 -2 4 11 9 30 10 22
2 34 -2 35 -10z m49 3 c0 -5 -7 -11 -15 -15 -15 -5 -20 5 -8 17 9 10 23 9 23
-2z m-1660 -21 c0 -5 -5 -10 -11 -10 -5 0 -7 5 -4 10 3 6 8 10 11 10 2 0 4 -4
4 -10z m105 0 c-3 -5 -11 -10 -16 -10 -6 0 -7 5 -4 10 3 6 11 10 16 10 6 0 7
-4 4 -10z m1248 -4 c4 -10 1 -13 -8 -9 -8 3 -12 9 -9 14 7 12 11 11 17 -5z
m1707 -26 c0 -5 -2 -10 -4 -10 -3 0 -8 5 -11 10 -3 6 -1 10 4 10 6 0 11 -4 11
-10z m-3042 -45 c0 -20 -3 -23 -14 -14 -10 8 -11 14 -1 24 7 8 13 14 13 15 1
0 2 -11 2 -25z m3045 -6 c-3 -10 -1 -19 3 -19 5 0 24 -14 42 -31 17 -16 33
-28 33 -25 1 4 2 9 3 14 1 4 7 16 14 27 13 20 13 19 9 -2 -4 -19 -2 -20 13
-10 10 6 17 15 14 19 -3 4 3 5 12 1 11 -4 15 -3 11 4 -4 7 0 10 10 9 10 -2 18
-9 18 -17 0 -8 10 -14 25 -14 15 0 24 -5 23 -12 -2 -7 2 -13 7 -13 6 0 5 -6
-2 -14 -17 -18 -32 2 -16 21 7 9 7 13 -1 13 -11 0 -15 -13 -12 -37 1 -7 -4
-10 -12 -7 -8 3 -20 -3 -28 -13 -13 -16 -12 -17 4 -4 10 8 17 9 17 3 0 -6 8
-9 18 -6 13 4 12 2 -3 -7 -11 -8 -22 -14 -25 -15 -3 0 -16 -4 -30 -7 -14 -4
-36 -8 -50 -10 -14 -1 -31 -6 -37 -10 -8 -5 -13 -3 -13 3 0 15 -32 8 -48 -10
-11 -13 -11 -11 -2 8 6 13 18 26 26 29 7 3 11 9 8 14 -3 5 -9 7 -13 5 -4 -3
-14 28 -22 69 -12 55 -13 72 -3 68 6 -2 10 -13 7 -24z m-1716 15 c-3 -3 -12
-4 -19 -1 -8 3 -5 6 6 6 11 1 17 -2 13 -5z m63 -19 c-7 -9 -15 -13 -19 -10 -3
3 1 10 9 15 21 14 24 12 10 -5z m-1360 -5 c0 -5 -4 -10 -10 -10 -5 0 -10 5
-10 10 0 6 5 10 10 10 6 0 10 -4 10 -10z m690 -47 c-11 -17 -11 -17 -6 1 5 13
2 17 -9 13 -17 -7 -29 8 -21 29 5 13 9 12 27 -5 17 -16 19 -23 9 -38z m590 41
c0 -2 -7 -4 -15 -4 -8 0 -15 4 -15 10 0 5 7 7 15 4 8 -4 15 -8 15 -10z m-945
-14 c-3 -5 -12 -10 -18 -10 -7 0 -6 4 3 10 19 12 23 12 15 0z m418 -3 c4 3 7
-1 7 -10 0 -20 4 -21 31 -7 13 7 19 7 19 0 0 -5 -6 -10 -12 -10 -9 0 -8 -4 2
-11 11 -8 8 -9 -15 -4 -16 3 -38 7 -47 9 -25 3 -31 13 -24 32 5 12 9 14 20 5
7 -6 16 -8 19 -4z m567 -7 c0 -5 -9 -10 -21 -10 -11 0 -17 5 -14 10 3 6 13 10
21 10 8 0 14 -4 14 -10z m-1313 -22 c-3 -8 -6 -5 -6 6 -1 11 2 17 5 13 3 -3 4
-12 1 -19z m3333 18 c0 -2 -11 -6 -25 -8 -13 -3 -22 -1 -19 3 5 9 44 13 44 5z
m10 -20 c0 -14 -14 -36 -22 -36 -5 0 -6 5 -3 10 3 6 1 10 -4 10 -6 0 -11 5
-11 10 0 6 9 10 20 10 11 0 20 -2 20 -4z m-2830 -28 c0 -13 -23 -5 -28 10 -2
7 2 10 12 6 9 -3 16 -11 16 -16z m2782 -2 c7 4 8 2 4 -5 -6 -9 -11 -9 -22 0
-7 6 -11 16 -7 23 5 7 9 5 11 -7 2 -9 8 -14 14 -11z m-2431 -2 c15 -18 37 -18
56 1 16 17 37 10 26 -8 -4 -7 1 -6 10 2 10 8 20 11 24 7 3 -3 2 -6 -4 -6 -5 0
-10 -7 -10 -15 0 -17 13 -20 22 -5 4 6 12 5 21 -4 18 -18 19 -32 1 -17 -8 6
-17 8 -20 4 -12 -11 27 -32 44 -23 10 6 16 5 16 -3 0 -7 4 -20 8 -31 7 -15 1
-14 -34 9 -24 14 -48 24 -54 22 -19 -7 -32 -6 -30 3 3 12 -23 6 -42 -10 -9 -7
-15 -9 -14 -4 1 5 1 16 0 24 -1 12 -3 13 -10 1 -7 -11 -10 -9 -16 8 -3 11 -4
25 0 30 3 5 1 12 -5 16 -5 3 -10 -1 -10 -9 0 -9 -5 -16 -11 -16 -5 0 -7 5 -4
10 3 6 1 10 -4 10 -6 0 -11 4 -11 8 0 14 38 11 51 -4z m-821 -4 c13 -8 13 -11
-2 -26 -23 -24 -53 -11 -38 16 12 22 18 24 40 10z m760 -21 c0 -6 -4 -7 -10
-4 -5 3 -10 11 -10 16 0 6 5 7 10 4 6 -3 10 -11 10 -16z m-232 -5 c12 -8 22
-21 22 -27 0 -7 -7 -4 -14 6 -7 9 -20 17 -29 17 -9 0 -19 5 -22 10 -10 15 18
12 43 -6z m96 -50 c9 -3 16 -11 16 -16 0 -7 -5 -6 -13 1 -8 6 -17 8 -20 4 -4
-3 -7 -1 -7 5 0 14 2 14 24 6z m325 -8 c7 -8 8 -17 3 -19 -4 -3 -13 3 -20 14
-14 22 0 26 17 5z m2209 -18 c18 0 30 -3 27 -8 -3 -4 -13 -7 -23 -5 -9 1 -28
-3 -42 -10 -14 -7 -31 -10 -39 -7 -8 2 -11 0 -8 -5 4 -6 -4 -8 -19 -5 -27 5
-27 7 13 33 16 10 35 15 43 12 8 -4 30 -6 48 -5z m223 -5 c13 -17 13 -17 -6
-3 -11 8 -22 16 -24 17 -2 2 0 3 6 3 6 0 17 -8 24 -17z m-2696 -3 c3 -5 1 -10
-4 -10 -6 0 -11 5 -11 10 0 6 2 10 4 10 3 0 8 -4 11 -10z m111 -46 c19 -15 19
-15 -1 -6 -11 5 -27 12 -35 15 -13 5 -13 6 1 6 8 1 24 -6 35 -15z m779 -76
c17 -50 60 -94 101 -104 13 -3 24 -10 24 -14 0 -5 9 -12 20 -15 11 -4 18 -10
15 -15 -6 -10 -55 9 -55 21 0 9 -39 24 -71 28 -5 0 -8 5 -4 10 3 5 -3 12 -13
15 -15 5 -43 72 -60 146 -8 32 28 -27 43 -72z m1485 77 c0 -2 -9 -9 -20 -15
-16 -9 -18 -8 -14 5 5 13 34 22 34 10z m-2160 -45 c28 -15 30 -18 13 -17 -13
1 -23 5 -23 10 0 5 -6 7 -14 4 -8 -3 -17 1 -20 9 -7 18 1 17 44 -6z m-775 -30
c-3 -5 -11 -10 -16 -10 -6 0 -7 5 -4 10 3 6 11 10 16 10 6 0 7 -4 4 -10z
m-341 -25 c-4 -8 -10 -15 -15 -15 -5 0 -9 -9 -9 -20 0 -11 -5 -19 -12 -17 -6
1 -14 -7 -17 -18 -3 -11 -16 -21 -29 -23 -22 -2 -22 0 10 32 18 19 42 43 52
55 23 25 27 26 20 6z m3126 11 c0 -3 -4 -8 -10 -11 -5 -3 -10 -1 -10 4 0 6 5
11 10 11 6 0 10 -2 10 -4z m-2836 -65 c-2 -3 -19 10 -37 28 l-32 34 37 -29
c20 -15 35 -30 32 -33z m66 29 c-28 -22 -42 -21 -48 1 -3 12 -2 12 6 0 8 -11
14 -9 32 9 12 12 25 19 28 15 4 -3 -4 -15 -18 -25z m85 20 c3 -6 -1 -7 -9 -4
-18 7 -21 14 -7 14 6 0 13 -4 16 -10z m989 -6 c3 -8 2 -12 -4 -9 -6 3 -10 10
-10 16 0 14 7 11 14 -7z m1764 -65 c-16 -32 -31 -59 -33 -59 -2 0 8 30 21 66
13 37 24 70 24 73 0 3 4 0 9 -7 5 -9 -2 -35 -21 -73z m-2798 42 c-20 -39 -80
-61 -80 -30 0 6 5 7 11 4 6 -4 17 2 25 14 9 12 20 19 25 16 5 -4 9 1 9 10 0 9
5 13 10 10 7 -4 7 -13 0 -24z m-344 -8 c-10 -10 -19 5 -10 18 6 11 8 11 12 0
2 -7 1 -15 -2 -18z m1404 -3 c0 -5 -5 -10 -11 -10 -5 0 -7 -4 -4 -10 3 -5 15
-10 26 -10 11 0 17 -5 14 -10 -4 -6 -3 -9 2 -8 4 1 18 -2 31 -6 16 -5 21 -13
17 -25 -6 -20 32 -74 46 -66 5 4 9 2 9 -3 0 -10 -50 -37 -63 -33 -5 1 -6 -2
-3 -7 3 -5 -6 -15 -19 -22 -14 -7 -25 -20 -25 -29 0 -13 -2 -14 -9 -2 -5 8
-15 11 -23 8 -8 -3 -21 -1 -29 4 -11 7 -11 9 4 9 17 0 22 11 10 23 -8 9 -33
-12 -33 -27 0 -17 48 -37 54 -22 2 6 3 1 3 -11 -1 -15 -5 -19 -11 -13 -6 6
-14 10 -20 10 -6 0 -5 -5 1 -11 6 -6 9 -18 6 -27 -4 -10 -2 -13 5 -8 6 3 14 1
18 -5 3 -6 0 -15 -7 -20 -10 -6 -6 -9 14 -9 16 0 26 -4 22 -10 -3 -5 3 -10 15
-10 11 0 23 -8 26 -17 3 -10 11 -30 19 -45 8 -15 10 -30 6 -32 -4 -3 -36 -10
-70 -15 -57 -9 -69 -8 -128 15 -75 28 -173 81 -173 94 0 5 -3 17 -6 27 -4 12
-3 14 3 6 7 -10 20 -6 54 16 65 41 100 86 138 176 19 44 41 89 50 99 13 16 13
18 1 11 -8 -4 -6 1 5 13 22 23 35 27 35 12z m1640 -30 c0 -5 -4 -10 -10 -10
-5 0 -10 5 -10 10 0 6 5 10 10 10 6 0 10 -4 10 -10z m-1374 -32 c-4 7 -1 12 9
12 8 0 18 -6 21 -14 3 -8 11 -13 19 -10 13 5 31 -43 20 -54 -3 -3 -5 0 -5 7 0
8 -7 11 -15 7 -8 -3 -21 1 -29 10 -8 8 -21 13 -28 12 -7 -2 -13 7 -14 20 -1
19 1 20 14 10 13 -10 14 -10 8 0z m264 -33 c11 -13 10 -14 -4 -9 -9 3 -16 10
-16 15 0 13 6 11 20 -6z m1073 -20 c-3 -9 -8 -14 -10 -11 -3 3 -2 9 2 15 9 16
15 13 8 -4z m-963 -27 c0 -6 -7 -5 -15 2 -8 7 -15 17 -15 22 0 6 7 5 15 -2 8
-7 15 -17 15 -22z m-2180 19 c0 -2 -16 -19 -37 -38 -37 -35 -37 -21 1 18 18
19 36 29 36 20z m2964 -11 c-21 -15 -30 -14 -19 3 3 6 14 11 23 11 13 0 13 -2
-4 -14z m-1257 -18 c-3 -8 -6 -5 -6 6 -1 11 2 17 5 13 3 -3 4 -12 1 -19z m124
4 c-7 -2 -18 1 -23 6 -8 8 -4 9 13 5 13 -4 18 -8 10 -11z m44 -12 c4 -6 -9
-10 -32 -9 -34 1 -35 2 -13 9 35 11 38 11 45 0z m538 3 c-7 -2 -19 -2 -25 0
-7 3 -2 5 12 5 14 0 19 -2 13 -5z m192 -14 c66 -7 121 -13 123 -14 1 -1 -4
-16 -11 -34 -7 -17 -16 -29 -19 -25 -4 3 -4 -4 -1 -17 6 -21 4 -22 -27 -15
-19 3 -41 13 -50 21 -9 8 -20 12 -23 8 -4 -3 -12 8 -18 25 -11 33 -11 33 -94
37 -35 1 -55 11 -55 27 0 6 11 8 28 4 15 -3 81 -11 147 -17z m255 6 c4 3 6 -3
3 -14 -8 -30 12 -33 41 -6 14 13 26 20 26 15 0 -5 -11 -17 -25 -28 -13 -11
-21 -23 -17 -27 4 -5 -2 -5 -12 -1 -11 4 -22 3 -25 -2 -10 -14 -82 -55 -87
-49 -9 9 38 97 52 97 8 0 18 8 21 17 4 11 8 13 11 5 2 -7 7 -10 12 -7z m273
-5 c3 -13 0 -20 -8 -20 -11 0 -13 14 -6 38 3 8 9 -1 14 -18z m-798 -11 c10
-14 14 -59 6 -63 -14 -8 -75 -18 -69 -11 5 5 -1 14 -12 22 -11 8 -20 20 -20
26 0 7 5 4 11 -5 15 -27 35 -22 49 12 13 31 24 37 35 19z m-679 -11 c4 -7 3
-8 -4 -4 -7 4 -12 2 -12 -3 0 -6 -7 -11 -15 -11 -8 0 -15 -4 -15 -10 0 -5 6
-10 13 -10 8 0 7 -3 -3 -10 -11 -7 -17 -5 -21 8 -4 11 2 23 20 34 31 21 28 21
37 6z m630 -103 c16 -8 18 -13 9 -22 -7 -6 -21 -13 -31 -15 -24 -6 51 -41 110
-52 21 -4 36 -9 34 -12 -8 -7 -150 25 -165 37 -7 7 -13 19 -13 28 0 9 -11 28
-25 43 -22 23 -24 34 -19 68 l7 40 36 -52 c20 -29 46 -57 57 -63z m484 106 c0
-5 -7 -14 -15 -21 -12 -10 -15 -10 -15 2 0 8 3 18 7 21 9 10 23 9 23 -2z
m-3041 -55 c-1 -20 -2 -20 -6 -1 -3 11 -10 27 -17 35 -10 13 -9 13 7 1 9 -7
16 -23 16 -35z m3469 19 c-3 -14 -1 -25 6 -25 6 0 3 -5 -7 -11 -25 -15 -29 -8
-15 29 15 38 22 42 16 7z m474 13 c-15 -15 -16 -72 -2 -98 7 -13 5 -30 -9 -60
l-18 -41 -6 38 c-4 23 -2 40 5 44 7 4 9 26 6 58 -4 40 -2 54 11 61 22 13 27
12 13 -2z m-2438 -16 c3 7 3 2 0 -12 -14 -54 -23 -68 -41 -65 -10 2 -21 4 -25
4 -5 1 -8 6 -8 11 0 6 6 9 13 8 6 -2 11 2 10 9 -2 7 3 10 11 7 11 -4 14 3 12
26 -2 27 -1 30 10 16 9 -13 13 -14 18 -4z m786 5 c0 7 9 9 22 5 12 -3 17 -7
11 -9 -7 -3 -9 -12 -6 -21 3 -10 2 -13 -4 -6 -4 6 -16 13 -25 17 -10 3 -18 12
-18 19 0 9 3 8 10 -2 5 -8 10 -10 10 -3z m1095 3 c3 -5 1 -10 -4 -10 -6 0 -11
5 -11 10 0 6 2 10 4 10 3 0 8 -4 11 -10z m-1968 -27 c-6 -16 -19 -44 -29 -63
l-16 -35 26 -6 c15 -4 45 -7 66 -8 25 -1 48 -9 62 -22 12 -11 66 -43 121 -69
54 -27 92 -49 85 -50 -7 0 -20 -6 -28 -14 -7 -8 -25 -23 -38 -33 -13 -11 -39
-44 -57 -74 -59 -96 -49 -97 -164 22 -74 78 -110 124 -133 173 -36 76 -37 80
-17 73 7 -3 24 3 37 13 21 18 22 19 3 16 -11 -2 -14 -1 -7 1 7 3 10 9 7 14 -3
5 1 6 9 3 9 -3 16 -11 16 -18 0 -6 4 -4 10 4 6 9 5 17 -3 22 -8 5 -6 9 6 14
10 3 24 19 33 35 19 37 28 38 11 2z m440 2 c0 -8 -4 -12 -9 -9 -4 3 -8 9 -8
15 0 5 4 9 8 9 5 0 9 -7 9 -15z m298 -5 c3 -5 16 -10 28 -10 21 -1 21 -1 -3
-14 -29 -16 -36 -14 -43 14 -5 21 7 28 18 10z m131 -10 c9 0 13 -4 10 -9 -4
-5 0 -12 6 -14 9 -4 8 -5 -2 -6 -19 0 -59 17 -43 18 7 1 11 7 9 14 -1 6 -1 9
1 5 3 -5 11 -8 19 -8z m51 0 c-3 -10 0 -21 7 -23 6 -2 9 -7 6 -10 -12 -13 -29
10 -23 31 3 12 8 22 10 22 3 0 3 -9 0 -20z m111 -13 c37 -34 33 -36 -62 -29
-26 2 -39 23 -30 47 8 19 62 9 92 -18z m-2411 -12 c6 -14 8 -25 3 -25 -4 0
-10 7 -14 15 -3 9 -12 12 -23 8 -16 -6 -16 -5 -4 10 18 23 24 21 38 -8z m3548
6 c-4 -9 0 -11 10 -7 10 3 13 2 10 -5 -7 -11 -46 -8 -100 7 l-30 8 30 6 c53
10 86 6 80 -9z m-2655 -7 c0 -2 -7 -4 -15 -4 -8 0 -15 4 -15 10 0 5 7 7 15 4
8 -4 15 -8 15 -10z m2885 -24 c-19 -21 -50 -26 -73 -11 -10 6 -8 10 9 14 13 4
26 1 30 -4 5 -8 9 -8 13 0 4 6 2 11 -3 11 -6 0 -11 5 -11 11 0 6 9 8 21 4 16
-6 20 -4 14 6 -6 11 -5 12 5 2 11 -10 10 -16 -5 -33z m-3395 -9 c0 -5 -9 -11
-21 -14 -16 -4 -18 -3 -8 9 13 16 29 19 29 5z m3297 3 c-3 -3 -12 -4 -19 -1
-8 3 -5 6 6 6 11 1 17 -2 13 -5z m-161 -39 c1 -8 -2 -17 -7 -21 -5 -3 -9 7 -9
22 0 27 12 26 16 -1z m-896 3 c0 -9 4 -8 10 2 8 12 10 12 11 -5 0 -20 0 -20 8
0 8 19 8 19 20 -3 9 -18 9 -22 -2 -22 -26 0 -77 22 -71 31 8 13 24 11 24 -3z
m100 -14 c0 -8 -19 -13 -24 -6 -3 5 1 9 9 9 8 0 15 -2 15 -3z m227 -19 c-12
-25 -13 -25 -132 -23 -66 0 -106 3 -90 6 26 4 28 5 10 12 -12 5 22 8 82 7 70
-1 106 2 115 11 20 20 27 14 15 -13z m943 -77 c0 -5 -4 -8 -10 -8 -5 0 -10 10
-10 23 0 18 2 19 10 7 5 -8 10 -18 10 -22z m-1350 -39 c117 -17 122 -17 126
-21 2 -3 -10 -25 -26 -51 -30 -48 -31 -62 -2 -27 16 18 20 18 57 5 22 -8 49
-15 60 -15 17 -1 15 -6 -15 -31 -19 -17 -48 -40 -63 -52 -16 -12 -50 -39 -75
-59 -42 -34 -62 -45 -62 -34 0 2 7 21 16 42 9 22 18 54 19 72 3 28 1 31 -18
27 -12 -3 -86 -7 -165 -9 -136 -5 -145 -6 -178 -31 -19 -15 -43 -36 -54 -47
-17 -18 -26 -20 -83 -14 l-64 7 12 32 c7 18 17 46 24 63 11 30 42 49 56 36 3
-3 23 -5 44 -3 32 2 39 -1 44 -18 3 -12 13 -21 23 -21 16 0 16 1 -2 14 -19 14
-19 15 0 68 29 83 43 91 156 83 52 -3 129 -11 170 -16z m280 -64 c0 -11 -50
-36 -61 -29 -8 4 -2 11 17 20 32 14 44 16 44 9z m-2190 -20 c11 -13 10 -14 -4
-9 -9 3 -16 10 -16 15 0 13 6 11 20 -6z m-883 -21 c-3 -3 -12 -4 -19 -1 -8 3
-5 6 6 6 11 1 17 -2 13 -5z m-30 -70 c-3 -3 -12 -4 -19 -1 -8 3 -5 6 6 6 11 1
17 -2 13 -5z m-92 -34 c3 -5 2 -10 -4 -10 -5 0 -13 5 -16 10 -3 6 -2 10 4 10
5 0 13 -4 16 -10z m345 6 c0 -3 -4 -8 -10 -11 -5 -3 -10 -1 -10 4 0 6 5 11 10
11 6 0 10 -2 10 -4z m3645 -135 c-4 -3 -13 2 -20 12 -13 18 -35 19 -46 3 -22
-30 -103 12 -111 58 -4 22 45 44 102 46 19 1 44 5 55 9 19 8 20 4 23 -57 2
-35 0 -67 -3 -71z m-4132 64 c-3 -9 -8 -14 -10 -11 -3 3 -2 9 2 15 9 16 15 13
8 -4z m3922 -110 c8 -16 25 -45 36 -62 20 -32 12 -44 -17 -25 -20 12 -64 110
-64 139 l1 28 14 -25 c9 -14 22 -38 30 -55z m-1670 14 c6 -19 0 -38 -9 -28
-10 12 -16 49 -7 49 5 0 13 -9 16 -21z m35 11 c0 -5 -2 -10 -4 -10 -3 0 -8 5
-11 10 -3 6 -1 10 4 10 6 0 11 -4 11 -10z m740 -23 c-10 -9 -11 -9 -6 1 4 6 3
12 -1 12 -5 0 -15 -6 -22 -12 -10 -11 -11 -10 -6 4 7 18 38 29 44 15 2 -5 -2
-14 -9 -20z m-2414 -19 l29 -33 -32 29 c-18 17 -33 31 -33 33 0 8 8 1 36 -29z
m1623 -9 c18 -6 30 -16 28 -22 -6 -20 -25 -18 -53 7 -32 28 -24 32 25 15z
m-1568 -36 c13 -16 12 -17 -3 -4 -10 7 -18 15 -18 17 0 8 8 3 21 -13z m3182
-19 c-2 -7 -11 -15 -19 -18 -10 -4 -14 3 -14 24 0 27 2 29 19 18 10 -6 17 -17
14 -24z m-2005 1 c-3 -3 -9 2 -12 12 -6 14 -5 15 5 6 7 -7 10 -15 7 -18z m-7
-80 c-9 -30 -9 -30 -10 10 -1 25 2 36 9 29 6 -6 6 -21 1 -39z m-1116 15 c-3
-5 2 -10 11 -10 13 0 15 -3 7 -11 -6 -6 -16 -8 -22 -5 -14 9 -14 36 0 36 5 0
7 -4 4 -10z m95 -20 c13 -25 2 -25 -30 0 -25 19 -25 20 -3 20 12 0 27 -9 33
-20z m1345 -10 c3 -5 -1 -10 -10 -10 -9 0 -13 5 -10 10 3 6 8 10 10 10 2 0 7
-4 10 -10z m-1440 -57 c0 -9 6 -18 13 -20 8 -3 10 1 5 14 -5 13 1 10 22 -9 15
-15 31 -26 35 -23 4 3 10 -5 14 -18 5 -18 8 -20 16 -7 5 8 10 10 10 4 0 -6 -7
-17 -15 -24 -12 -10 -15 -10 -15 1 0 10 -3 10 -12 1 -18 -18 -1 -27 27 -14 14
6 32 9 40 6 17 -7 21 -34 4 -34 -6 0 -3 -7 5 -16 20 -19 20 -28 2 -21 -7 3
-19 0 -26 -6 -10 -9 -11 -9 -6 1 4 7 1 12 -8 12 -9 0 -16 4 -16 9 0 5 -11 12
-25 15 -14 4 -25 11 -25 17 0 6 -4 8 -9 4 -5 -3 -12 -1 -16 5 -3 5 -1 10 4 10
6 0 19 7 30 17 16 13 17 18 6 30 -16 15 -34 17 -36 3 -1 -5 -3 -13 -4 -17 -2
-5 -6 -19 -11 -33 l-8 -25 -7 25 c-10 34 -11 125 -2 116 4 -4 8 -15 8 -23z
m3727 -8 c0 -5 -5 -11 -11 -13 -6 -2 -11 4 -11 13 0 9 5 15 11 13 6 -2 11 -8
11 -13z m-2142 -15 c0 -8 -24 -20 -40 -20 -4 0 -6 8 -3 19 3 13 11 17 24 14
10 -3 19 -9 19 -13z m50 -34 c0 -2 -7 -6 -15 -10 -8 -3 -15 -1 -15 4 0 6 7 10
15 10 8 0 15 -2 15 -4z m2120 -60 c0 -67 -13 -93 -40 -76 -13 8 -13 10 0 10
10 0 11 3 3 11 -6 6 -9 18 -6 25 3 8 1 14 -5 14 -6 0 -8 8 -5 19 2 10 12 18
21 17 12 -1 16 6 14 22 -2 12 2 22 7 22 7 0 11 -25 11 -64z m-172 -4 c2 -7 -2
-10 -12 -6 -10 4 -16 1 -16 -7 0 -11 -2 -11 -9 1 -6 8 -7 18 -4 23 7 12 35 5
41 -11z m-3427 -64 c11 -21 11 -22 -4 -9 -10 7 -17 17 -17 22 0 15 9 10 21
-13z m-144 -30 c-3 -8 -6 -5 -6 6 -1 11 2 17 5 13 3 -3 4 -12 1 -19z m3283 15
c-1 -8 -21 -24 -74 -58 l-29 -19 12 22 c17 32 92 77 91 55z m177 -35 c-3 -8
-6 -5 -6 6 -1 11 2 17 5 13 3 -3 4 -12 1 -19z m-1979 -18 c17 -11 32 -24 32
-29 0 -12 -112 -31 -141 -24 -18 5 -21 3 -16 -10 7 -19 -17 -42 -34 -31 -7 4
-17 1 -23 -7 -6 -8 -47 -30 -91 -48 -67 -28 -89 -32 -138 -29 -43 3 -60 1 -64
-9 -3 -7 -10 -10 -16 -6 -5 3 -17 -3 -25 -13 -14 -18 -14 -18 -8 -1 3 10 6 24
6 29 0 6 3 9 6 6 3 -4 25 3 49 13 25 11 54 17 67 14 17 -4 26 0 33 16 12 27
146 90 153 71 6 -18 14 -15 50 18 18 17 41 30 50 30 9 0 26 7 36 15 26 19 35
19 74 -5z m2172 -6 c0 -8 -6 -14 -13 -14 -7 0 -13 -9 -14 -20 -1 -13 3 -18 10
-14 7 4 -6 -10 -28 -30 -39 -36 -40 -37 -46 -14 -20 78 -20 81 -5 75 11 -4 13
-1 9 10 -5 14 -1 15 26 10 23 -5 33 -3 37 8 7 18 24 10 24 -11z m-3624 -34 c8
0 22 -9 31 -19 9 -11 20 -18 24 -16 4 3 12 -2 19 -10 7 -8 18 -15 26 -15 7 0
16 -5 19 -10 4 -7 -3 -8 -22 -4 -15 4 -29 11 -31 16 -2 4 -8 8 -14 8 -5 0 -17
7 -25 16 -9 8 -24 13 -34 11 -16 -4 -19 0 -18 26 1 18 3 24 6 15 2 -10 11 -18
19 -18z m3450 3 c4 -16 9 -37 10 -48 1 -11 16 -78 33 -149 17 -71 29 -131 27
-134 -5 -5 -15 32 -46 168 -12 52 -25 102 -29 110 -5 9 -12 30 -16 48 -8 39
10 44 21 5z m-2579 -15 c-3 -8 -6 -5 -6 6 -1 11 2 17 5 13 3 -3 4 -12 1 -19z
m2567 -70 c8 -35 -3 -35 -29 0 -11 15 -13 22 -4 15 13 -10 14 -7 12 25 -2 31
-1 33 6 12 4 -14 11 -37 15 -52z m-2577 30 c-3 -8 -6 -5 -6 6 -1 11 2 17 5 13
3 -3 4 -12 1 -19z m2490 -48 c10 -38 10 -57 3 -64 -20 -20 -52 62 -42 107 8
31 25 13 39 -43z m-2397 23 c0 -13 -4 -22 -9 -18 -5 3 -12 -3 -14 -12 -3 -10
-5 -2 -6 18 -1 26 3 36 14 36 9 0 15 -10 15 -24z m2429 -30 c2 -24 -17 -13
-23 12 -9 35 6 58 15 25 4 -14 7 -31 8 -37z m-3349 5 c11 -12 18 -23 16 -25
-7 -7 -55 20 -60 33 -8 22 21 16 44 -8z m108 -10 c14 -12 17 -108 2 -108 -5 0
-10 6 -10 13 0 7 -16 31 -35 53 -19 21 -35 44 -35 49 0 6 5 3 10 -5 9 -14 14
-7 11 13 -2 10 39 -1 57 -15z m3252 -48 c0 -11 -4 -20 -9 -20 -5 0 -7 9 -4 20
3 11 7 20 9 20 2 0 4 -9 4 -20z m47 -12 c-3 -8 -6 -5 -6 6 -1 11 2 17 5 13 3
-3 4 -12 1 -19z m-1991 -10 c15 -24 10 -44 -10 -46 -11 0 -29 -12 -40 -25 -34
-39 -93 -70 -121 -63 -20 5 -25 13 -25 39 1 28 2 30 13 15 9 -11 22 -14 40
-11 15 3 27 7 27 10 0 11 -26 29 -38 25 -6 -2 -12 -1 -12 2 0 9 61 38 67 32 3
-3 17 4 31 14 28 23 57 26 68 8z m-1847 -54 c12 -25 20 -48 17 -51 -5 -6 -46
71 -46 87 0 19 8 10 29 -36z m390 -45 c-7 -4 -1 -6 14 -6 15 1 27 6 27 10 0 4
6 2 13 -5 19 -17 17 -38 -4 -38 -10 0 -21 -5 -25 -11 -10 -16 18 -30 34 -17
16 14 32 -5 31 -37 0 -11 -3 -14 -6 -7 -4 10 -8 9 -18 -5 -11 -15 -15 -15 -29
-4 -9 7 -16 21 -16 31 0 33 -70 41 -104 12 -11 -10 4 15 32 54 29 40 53 80 54
90 1 11 3 1 5 -20 3 -24 0 -42 -8 -47z m3448 59 c19 -2 4 -18 -17 -18 -25 0
-50 -10 -50 -21 0 -5 6 -9 14 -9 8 0 18 -5 22 -12 5 -7 3 -8 -5 -3 -9 5 -12
-2 -10 -28 4 -43 -5 -56 -20 -30 -15 28 -11 103 5 110 8 3 11 10 7 16 -4 7 2
8 18 3 13 -4 29 -8 36 -8z m-4057 -5 c0 -2 -88 -50 -112 -61 -5 -2 -8 1 -8 6
0 14 77 58 100 58 11 0 20 -1 20 -3z m1525 -22 c16 -19 16 -20 -2 -18 -11 0
-20 9 -20 19 -2 23 0 22 22 -1z m975 -10 c-15 -29 -27 -33 -33 -11 -4 17 4 24
36 29 4 0 3 -8 -3 -18z m394 4 c4 -11 11 -12 28 -6 14 5 49 0 102 -14 66 -18
80 -26 78 -40 -3 -13 1 -16 16 -13 15 4 18 1 15 -12 -10 -37 -109 -33 -185 6
-15 8 -46 16 -70 19 -68 9 -80 14 -73 36 5 15 3 17 -11 12 -12 -4 -15 -3 -10
6 5 7 14 10 22 7 8 -3 24 -1 36 4 33 13 45 12 52 -5z m-373 -28 c-11 -12 -23
-19 -25 -16 -9 9 25 50 36 43 6 -4 2 -14 -11 -27z m-671 14 c0 -27 -12 -37
-40 -33 -32 5 -31 18 4 32 28 12 36 12 36 1z m2234 -20 c3 -5 -1 -11 -9 -15
-15 -6 -29 7 -18 18 9 9 21 8 27 -3z m-1534 -8 c0 -5 -7 -17 -15 -27 -11 -14
-18 -17 -26 -9 -8 8 -4 15 12 27 27 18 29 19 29 9z m-2194 -22 c-2 -3 2 -12
10 -19 8 -7 14 -8 14 -2 0 5 4 10 10 10 5 0 7 -7 4 -15 -4 -10 -17 -14 -35
-13 -22 2 -29 7 -29 23 0 12 6 22 15 22 8 0 13 -3 11 -6z m2218 -46 c-16 -24
-33 -33 -35 -17 0 4 -2 15 -4 25 -2 9 6 24 18 32 19 13 22 13 30 0 5 -9 1 -24
-9 -40z m-1039 -15 c12 -19 -12 -10 -31 11 -19 22 -19 22 3 10 12 -6 25 -16
28 -21z m1681 18 c5 4 6 3 2 -2 -4 -5 -4 -14 2 -20 6 -8 1 -11 -18 -10 -56 2
-56 3 -37 24 12 14 22 17 30 10 6 -5 16 -6 21 -2z m-618 -49 c-18 -12 -23 8
-6 28 12 15 13 15 16 -2 2 -10 -2 -21 -10 -26z m1857 21 c3 -5 1 -10 -4 -10
-6 0 -11 5 -11 10 0 6 2 10 4 10 3 0 8 -4 11 -10z m-53 -22 c-7 -7 -12 -8 -12
-2 0 14 12 26 19 19 2 -3 -1 -11 -7 -17z m-2592 -23 c30 -2 78 -8 105 -12 28
-4 58 -7 67 -6 10 0 15 -4 12 -8 -3 -5 1 -9 8 -9 7 0 26 -14 43 -31 24 -25 27
-32 15 -39 -13 -8 -12 -10 3 -10 9 0 17 -5 17 -11 0 -5 -6 -7 -12 -4 -7 4 -4
-1 6 -9 11 -9 14 -16 8 -16 -14 0 -16 -34 -3 -59 9 -16 6 -17 -57 -3 -49 10
-122 13 -275 10 l-208 -4 5 30 c2 17 5 31 6 31 1 0 3 37 4 82 1 46 5 86 9 89
3 4 41 2 83 -3 61 -8 77 -7 81 4 4 11 8 11 17 -2 6 -8 34 -17 66 -20z m-1323
3 c-3 -8 -6 -5 -6 6 -1 11 2 17 5 13 3 -3 4 -12 1 -19z m3955 15 c-6 -2 -10
-9 -6 -14 3 -5 0 -9 -5 -9 -12 0 -14 13 -4 23 3 4 11 7 17 6 6 0 5 -3 -2 -6z
m8 -47 c0 -8 -5 -18 -10 -21 -6 -4 -7 -11 -4 -17 4 -6 2 -8 -3 -5 -6 4 -14 -5
-18 -20 -5 -21 -8 -24 -15 -13 -6 9 -4 18 3 23 7 5 4 6 -9 2 -15 -4 -24 0 -28
11 -5 13 -1 15 18 12 18 -4 23 -1 19 10 -5 11 -1 13 18 7 21 -7 22 -6 10 9
-12 14 -11 16 3 16 9 0 16 -6 16 -14z m-1670 -6 c0 -5 -4 -10 -10 -10 -5 0
-10 5 -10 10 0 6 5 10 10 10 6 0 10 -4 10 -10z m57 -25 c-7 -7 -13 -9 -15 -5
-2 5 -10 6 -18 3 -15 -6 -17 -2 -8 21 4 12 10 13 29 4 18 -8 21 -13 12 -23z
m1013 31 c0 -2 -8 -10 -17 -17 -16 -13 -17 -12 -4 4 13 16 21 21 21 13z
m-3960 -36 c13 -9 11 -13 -10 -29 -30 -23 -33 -22 -24 13 7 28 12 31 34 16z
m620 6 c0 -3 -4 -8 -10 -11 -5 -3 -10 -1 -10 4 0 6 5 11 10 11 6 0 10 -2 10
-4z m-396 -37 c-33 -13 -48 -11 -35 5 7 8 21 12 33 8 21 -5 21 -6 2 -13z
m4032 9 c-4 6 -3 12 3 12 22 0 19 -19 -5 -35 -30 -20 -35 -17 -27 13 5 19 8
20 21 10 12 -10 14 -10 8 0z m-4016 -38 c0 -5 -5 -10 -11 -10 -5 0 -7 5 -4 10
3 6 8 10 11 10 2 0 4 -4 4 -10z m514 -6 c5 -14 4 -15 -9 -4 -17 14 -19 20 -6
20 5 0 12 -7 15 -16z m2475 -10 c-13 -16 -29 -10 -29 11 0 8 7 11 20 8 16 -4
18 -8 9 -19z m-2549 -4 c0 -5 -4 -10 -10 -10 -5 0 -10 5 -10 10 0 6 5 10 10
10 6 0 10 -4 10 -10z m2355 -79 c3 -6 -3 -9 -14 -8 -11 0 -17 5 -15 9 7 11 22
10 29 -1z m1509 -12 c-3 -5 -10 -7 -15 -3 -5 3 -7 10 -3 15 3 5 10 7 15 3 5
-3 7 -10 3 -15z m-3747 -4 c-4 -8 -2 -17 3 -20 6 -4 10 -1 10 4 0 15 27 14 36
-1 5 -8 2 -9 -10 -5 -14 6 -17 3 -12 -9 3 -8 6 -20 6 -25 0 -5 6 -9 14 -9 8 0
17 -12 21 -27 6 -27 7 -27 21 -8 9 12 11 21 4 23 -5 2 -10 11 -10 20 0 13 5
11 19 -7 19 -24 19 -25 -3 -42 -23 -18 -112 -17 -131 2 -7 8 -1 10 20 7 26 -3
30 0 30 22 0 15 -5 24 -13 22 -8 -1 -11 2 -8 7 3 5 -1 14 -9 21 -11 9 -12 15
-2 25 16 19 20 18 14 0z m2213 -15 c0 -5 -2 -10 -4 -10 -3 0 -8 5 -11 10 -3 6
-1 10 4 10 6 0 11 -4 11 -10z m-2950 -15 c0 -2 -10 -9 -22 -15 -22 -11 -22
-10 -4 4 21 17 26 19 26 11z m4206 -90 c1 -8 -1 -15 -6 -15 -10 0 -20 26 -13
34 8 8 16 -1 19 -19z m-3580 -2 c17 -23 18 -48 1 -61 -9 -8 -21 -5 -45 9 -31
20 -31 21 -14 45 20 28 40 30 58 7z m3618 -16 c7 -6 6 -7 -4 -4 -8 2 -16 12
-17 23 -2 13 -1 15 4 4 3 -8 11 -19 17 -23z m-2688 -24 c-4 -21 -11 -78 -15
-128 -7 -72 -6 -93 5 -106 12 -13 12 -16 -1 -16 -18 0 -29 31 -27 72 3 44 35
215 40 215 3 0 2 -17 -2 -37z m-1075 -33 c6 0 6 -7 0 -19 -6 -10 -8 -21 -5
-23 3 -3 -7 -5 -21 -5 -18 0 -29 7 -34 21 -10 25 -2 54 9 36 5 -8 12 0 21 22
l13 33 3 -32 c3 -18 9 -33 14 -33z m29 56 c0 -3 -4 -8 -10 -11 -5 -3 -10 -1
-10 4 0 6 5 11 10 11 6 0 10 -2 10 -4z m1170 -21 c-7 -8 -14 -15 -15 -15 -2 0
-5 7 -9 15 -4 10 1 15 16 15 17 0 18 -2 8 -15z m-1016 -20 c-6 -16 -24 -21
-24 -7 0 11 11 22 21 22 5 0 6 -7 3 -15z m3553 -1 c-3 -3 -12 -4 -19 -1 -8 3
-5 6 6 6 11 1 17 -2 13 -5z m-2554 -89 c-3 -9 -8 -14 -10 -11 -3 3 -2 9 2 15
9 16 15 13 8 -4z m-685 -90 c-6 -14 -14 -25 -17 -26 -3 0 -15 -2 -26 -4 -20
-4 -45 11 -45 26 0 5 16 9 35 9 19 0 35 5 35 10 0 6 7 10 15 10 12 0 13 -4 3
-25z m3212 -20 c6 4 10 -1 10 -9 0 -10 -9 -16 -24 -16 -26 0 -49 18 -67 51 -9
18 -5 17 31 -6 22 -14 45 -23 50 -20z m-2672 -89 c-5 -23 -11 -50 -15 -61 -5
-17 -4 -18 11 -6 14 11 16 11 16 -2 0 -8 -6 -18 -12 -20 -8 -3 -6 -6 4 -6 12
-1 15 -6 11 -18 -5 -12 -3 -14 8 -8 12 7 12 5 1 -6 -11 -12 -14 -12 -22 1 -7
11 -10 11 -10 2 0 -8 -5 -10 -12 -6 -9 5 -8 2 1 -10 24 -29 64 -17 79 24 12
33 12 31 6 -25 -9 -80 -7 -103 11 -121 17 -17 20 -54 6 -54 -6 0 -13 5 -17 12
-4 7 -3 8 4 4 7 -4 12 -1 12 9 0 11 -5 15 -15 11 -13 -5 -19 4 -17 25 1 3 -15
5 -35 3 -26 -2 -33 0 -24 9 6 6 11 15 11 20 0 5 -9 -2 -21 -17 -12 -16 -19
-35 -16 -46 3 -13 0 -20 -9 -20 -8 0 -14 6 -14 14 0 8 -6 16 -12 18 -10 4 -10
22 1 84 7 43 17 87 22 96 12 22 11 74 -2 121 -8 29 -7 42 2 53 11 13 15 11 34
-12 19 -24 21 -34 13 -68z m2712 90 c0 -3 -4 -8 -10 -11 -5 -3 -10 -1 -10 4 0
6 5 11 10 11 6 0 10 -2 10 -4z m-2678 -148 c-8 -8 -9 -4 -5 13 4 13 8 18 11
10 2 -7 -1 -18 -6 -23z m1739 13 c-13 -11 -19 -25 -15 -35 3 -9 1 -16 -5 -16
-6 0 -10 -3 -10 -7 1 -5 1 -21 -1 -38 -1 -23 -3 -26 -9 -12 -4 10 -10 18 -15
17 -9 -1 -46 45 -46 59 0 14 -33 31 -62 32 -13 0 -17 3 -10 6 7 3 33 0 56 -6
34 -8 52 -8 82 3 53 20 61 19 35 -3z m-1704 -16 c0 -8 -4 -12 -9 -9 -4 3 -8 9
-8 15 0 5 4 9 8 9 5 0 9 -7 9 -15z m1540 -137 c39 -40 73 -80 74 -88 3 -17
-28 -80 -39 -80 -4 0 -27 42 -51 93 -66 137 -70 147 -62 147 3 0 39 -33 78
-72z m479 -11 c-11 -35 -72 -79 -123 -88 -26 -5 -48 -7 -50 -5 -2 2 27 17 64
35 97 45 98 45 102 77 2 16 6 23 8 16 3 -7 2 -23 -1 -35z m-2068 -72 c-3 -3
-9 2 -12 12 -6 14 -5 15 5 6 7 -7 10 -15 7 -18z m-28 1 c0 -7 9 -16 20 -19 12
-3 20 -14 20 -26 0 -14 9 -25 25 -31 26 -10 26 -11 -2 -59 -2 -2 -12 6 -23 19
-16 18 -18 26 -8 33 9 6 5 7 -10 4 -25 -6 -27 -3 -37 56 -4 23 -2 37 5 37 5 0
10 -6 10 -14z m2095 -5 c-8 -14 -80 -51 -97 -51 -7 1 1 8 17 17 17 9 41 24 54
35 25 19 38 18 26 -1z m-1960 -21 c3 -5 2 -10 -4 -10 -5 0 -13 5 -16 10 -3 6
-2 10 4 10 5 0 13 -4 16 -10z m1642 -19 c3 -14 11 -32 17 -40 9 -12 7 -13 -14
-8 -14 4 -33 7 -42 7 -10 0 -18 5 -18 11 0 5 4 8 8 5 4 -2 14 -1 21 3 10 7 11
13 2 27 -7 13 -10 14 -11 5 0 -8 -3 -12 -6 -8 -9 9 3 24 21 24 8 0 18 -12 22
-26z m-1157 -36 c-7 -9 -8 -15 -2 -15 14 0 10 -20 -12 -53 -13 -18 -26 -27
-40 -25 -16 2 -21 -2 -20 -19 1 -13 -3 -23 -8 -23 -6 0 -8 7 -4 15 3 8 1 15
-3 15 -15 0 -22 -33 -9 -42 9 -5 3 -8 -15 -8 -16 0 -26 -4 -22 -10 3 -6 -1 -7
-9 -4 -9 3 -16 9 -16 13 0 3 32 38 71 76 39 39 75 78 80 88 6 10 13 16 16 13
3 -3 0 -12 -7 -21z m-95 -195 c3 -6 -1 -7 -9 -4 -18 7 -21 14 -7 14 6 0 13 -4
16 -10z m1244 -65 c2 -44 1 -46 -19 -35 -11 6 -20 15 -20 19 0 5 -9 11 -21 14
-27 7 -19 33 10 30 12 -2 24 4 27 12 10 26 20 8 23 -40z m-89 25 c0 -5 -2 -10
-4 -10 -3 0 -8 5 -11 10 -3 6 -1 10 4 10 6 0 11 -4 11 -10z m-1370 -639 c-1
-17 -19 -27 -55 -28 l-40 -2 38 8 c37 8 61 21 39 21 -7 0 -12 4 -12 10 0 5 7
7 15 4 8 -4 15 -9 15 -13z m3 -63 c-6 -7 -9 -20 -8 -30 2 -9 -5 -18 -16 -21
-10 -3 -19 -4 -19 -3 0 13 34 66 42 66 7 0 7 -4 1 -12z m1 -74 c3 -8 2 -12 -4
-9 -6 3 -10 10 -10 16 0 14 7 11 14 -7z m-31 -21 c-4 -11 -3 -14 5 -9 12 7 17
-10 13 -48 -1 -13 4 -17 18 -13 14 3 17 0 14 -14 -5 -16 -15 -19 -67 -18 -40
0 -54 3 -41 8 11 5 20 12 21 17 0 5 4 16 7 24 4 8 9 26 11 40 3 14 5 26 5 28
1 1 5 2 11 2 5 0 6 -7 3 -17z m-23 -182 c0 -16 7 -37 16 -45 14 -15 12 -16
-28 -16 -40 1 -42 2 -24 15 11 8 14 15 8 15 -9 0 -10 5 -4 18 5 9 7 23 5 30
-3 6 2 12 11 12 11 0 16 -9 16 -29z m-305 -1 c3 -5 1 -10 -4 -10 -6 0 -11 5
-11 10 0 6 2 10 4 10 3 0 8 -4 11 -10z m-15 -210 c0 -13 -1 -13 -10 0 -7 11
-10 6 -9 -20 0 -30 2 -32 10 -15 8 17 9 16 5 -8 -4 -34 10 -22 17 13 2 14 5
-5 7 -42 1 -38 4 -72 5 -78 1 -5 3 -14 4 -19 1 -12 49 -22 115 -26 28 -2 58
-4 66 -4 13 -1 13 -3 1 -10 -8 -5 -24 -6 -37 -1 -13 5 -26 5 -29 0 -3 -4 0
-10 7 -12 14 -5 20 -38 7 -38 -5 0 -9 4 -9 9 0 14 -31 22 -54 14 -20 -6 -20
-7 4 -14 20 -6 17 -7 -15 -6 -30 2 -41 7 -43 21 -3 13 0 16 9 11 8 -5 10 -4 5
4 -4 6 -12 9 -17 6 -11 -7 -29 37 -29 73 l-1 27 -13 -25 c-8 -14 -12 -28 -10
-32 3 -5 0 -8 -5 -8 -6 0 -11 -8 -12 -17 0 -10 -5 -4 -10 12 -10 33 -2 166 13
205 7 20 11 22 18 10 6 -8 10 -22 10 -30z m-60 -30 c0 -11 -4 -20 -9 -20 -5 0
-7 9 -4 20 3 11 7 20 9 20 2 0 4 -9 4 -20z m387 -82 c-3 -8 -6 -5 -6 6 -1 11
2 17 5 13 3 -3 4 -12 1 -19z m-443 -148 c-6 -5 -24 21 -24 34 0 6 6 1 14 -10
8 -10 12 -21 10 -24z m113 -42 c-3 -8 -6 -5 -6 6 -1 11 2 17 5 13 3 -3 4 -12
1 -19z m103 7 c0 -1 -9 -5 -19 -8 -13 -3 -18 -1 -14 9 4 10 33 10 33 -1z m-63
-21 c-3 -3 -12 -4 -19 -1 -8 3 -5 6 6 6 11 1 17 -2 13 -5z m328 -92 c-3 -3
-11 0 -18 7 -9 10 -8 11 6 5 10 -3 15 -9 12 -12z m-8 -18 c-3 -3 -12 -4 -19
-1 -8 3 -5 6 6 6 11 1 17 -2 13 -5z"/>
<path d="M4251 7001 c-69 -15 -76 -18 -88 -48 -7 -18 -11 -33 -8 -33 16 0 144
34 165 43 22 10 24 15 15 33 -10 20 -12 20 -84 5z"/>
<path d="M3915 6810 c-3 -5 -1 -10 4 -10 6 0 11 5 11 10 0 6 -2 10 -4 10 -3 0
-8 -4 -11 -10z"/>
<path d="M3620 6751 c0 -6 4 -13 10 -16 6 -3 7 1 4 9 -7 18 -14 21 -14 7z"/>
<path d="M3585 6700 c-6 -10 -1 -120 5 -120 3 0 16 7 28 15 29 21 49 3 45 -39
-1 -17 0 -23 3 -13 6 18 6 18 20 0 14 -17 14 -16 5 4 -6 12 -11 31 -11 42 0
12 -4 21 -10 21 -5 0 -10 18 -10 40 0 29 -4 40 -15 40 -8 0 -15 4 -15 8 0 9
-40 11 -45 2z m12 -32 c-3 -8 -6 -5 -6 6 -1 11 2 17 5 13 3 -3 4 -12 1 -19z"/>
<path d="M3727 6633 c-4 -3 -7 -13 -7 -22 1 -13 3 -13 11 2 11 19 8 33 -4 20z"/>
<path d="M3510 6616 c0 -2 7 -7 16 -10 8 -3 12 -2 9 4 -6 10 -25 14 -25 6z"/>
<path d="M3430 6581 c0 -5 15 -15 34 -22 19 -7 40 -23 47 -36 22 -40 21 -17
-1 26 -17 34 -25 41 -50 41 -17 0 -30 -4 -30 -9z"/>
<path d="M3825 6560 c3 -5 8 -10 11 -10 2 0 4 5 4 10 0 6 -5 10 -11 10 -5 0
-7 -4 -4 -10z"/>
<path d="M3553 6553 c9 -2 25 -2 35 0 9 3 1 5 -18 5 -19 0 -27 -2 -17 -5z"/>
<path d="M3598 6493 c7 -3 16 -2 19 1 4 3 -2 6 -13 5 -11 0 -14 -3 -6 -6z"/>
<path d="M3531 6474 c0 -11 3 -14 6 -6 3 7 2 16 -1 19 -3 4 -6 -2 -5 -13z"/>
<path d="M3461 6449 c11 -16 25 -29 30 -29 5 0 9 -13 9 -29 0 -17 5 -33 11
-37 18 -11 2 66 -19 95 -10 13 -26 25 -35 27 -15 2 -15 -1 4 -27z"/>
<path d="M4630 6690 c0 -11 2 -20 4 -20 2 0 6 9 9 20 3 11 1 20 -4 20 -5 0 -9
-9 -9 -20z"/>
<path d="M4455 6635 c-44 -25 -91 -58 -105 -72 -14 -15 -17 -20 -6 -13 10 8
51 29 90 46 70 31 71 31 77 10 4 -18 6 -16 12 13 5 24 11 32 22 27 10 -4 15 1
15 14 0 29 -17 25 -105 -25z"/>
<path d="M4436 6427 c3 -10 9 -15 12 -12 3 3 0 11 -7 18 -10 9 -11 8 -5 -6z"/>
<path d="M4608 6365 c2 -14 8 -27 12 -30 4 -2 5 7 2 20 -2 14 -8 27 -12 30 -4
2 -5 -7 -2 -20z"/>
<path d="M4446 6222 c-3 -4 8 -13 25 -19 33 -13 38 -7 12 13 -21 16 -30 17
-37 6z"/>
<path d="M4460 6181 c0 -6 4 -13 10 -16 6 -3 7 1 4 9 -7 18 -14 21 -14 7z"/>
<path d="M4677 6130 c3 -11 10 -23 16 -27 7 -4 8 0 4 11 -4 10 -7 22 -7 27 0
5 -4 9 -9 9 -5 0 -7 -9 -4 -20z"/>
<path d="M4998 6058 c5 -5 16 -8 23 -6 8 3 3 7 -10 11 -17 4 -21 3 -13 -5z"/>
<path d="M4746 6052 c31 -28 264 -57 264 -33 0 6 -17 11 -42 11 -24 0 -79 7
-123 15 -94 17 -113 18 -99 7z"/>
<path d="M4003 6210 c-11 -16 -10 -18 2 -14 8 4 15 12 15 20 0 19 -3 18 -17
-6z"/>
<path d="M3708 5702 c-4 -16 -2 -25 8 -29 8 -3 13 -11 10 -18 -3 -8 2 -11 15
-8 19 5 19 6 0 22 -10 9 -20 25 -23 36 -3 18 -4 18 -10 -3z"/>
<path d="M3770 5621 c0 -6 4 -13 10 -16 6 -3 7 1 4 9 -7 18 -14 21 -14 7z"/>
<path d="M3657 5561 c-4 -17 -3 -21 5 -13 5 5 8 16 6 23 -3 8 -7 3 -11 -10z"/>
<path d="M4799 5581 c-11 -4 -14 -12 -9 -25 4 -14 9 -16 14 -8 4 7 4 12 -1 13
-4 0 1 4 11 8 11 4 15 10 10 13 -5 3 -16 3 -25 -1z"/>
<path d="M2310 4244 c0 -17 17 -36 24 -26 3 5 -1 15 -9 22 -8 7 -15 9 -15 4z"/>
<path d="M2215 4059 c-11 -16 -1 -19 13 -3 7 8 8 14 3 14 -5 0 -13 -5 -16 -11z"/>
<path d="M2245 3990 c3 -5 8 -10 11 -10 2 0 4 5 4 10 0 6 -5 10 -11 10 -5 0
-7 -4 -4 -10z"/>
<path d="M3635 3850 c-3 -5 -1 -10 4 -10 6 0 11 5 11 10 0 6 -2 10 -4 10 -3 0
-8 -4 -11 -10z"/>
<path d="M3167 3797 c-3 -9 1 -18 9 -21 16 -6 18 2 5 22 -7 11 -9 11 -14 -1z"/>
<path d="M3070 3049 c0 -5 5 -7 10 -4 6 3 10 8 10 11 0 2 -4 4 -10 4 -5 0 -10
-5 -10 -11z"/>
<path d="M3030 3019 c0 -5 5 -7 10 -4 6 3 10 8 10 11 0 2 -4 4 -10 4 -5 0 -10
-5 -10 -11z"/>
<path d="M3070 2910 c-13 -8 -12 -10 3 -10 9 0 17 5 17 10 0 12 -1 12 -20 0z"/>
<path d="M4575 7140 c11 -5 36 -8 55 -8 32 0 33 1 10 8 -14 4 -38 8 -55 8 -25
1 -27 -1 -10 -8z"/>
<path d="M4725 7133 c15 -16 95 -27 95 -14 0 6 -15 11 -34 11 -19 0 -43 3 -53
6 -12 5 -15 4 -8 -3z"/>
<path d="M3247 6854 c-4 -4 -7 -14 -7 -23 0 -11 3 -12 11 -4 6 6 10 16 7 23
-2 6 -7 8 -11 4z"/>
<path d="M2733 6756 c-13 -6 -23 -19 -23 -28 0 -15 5 -14 37 8 21 14 39 27 42
30 9 8 -34 1 -56 -10z"/>
<path d="M5535 6470 c-3 -5 3 -10 15 -10 12 0 18 5 15 10 -3 6 -10 10 -15 10
-5 0 -12 -4 -15 -10z"/>
<path d="M2301 6080 c-25 -42 -18 -52 14 -19 17 16 22 28 16 38 -7 11 -14 7
-30 -19z"/>
<path d="M2350 6085 c0 -16 16 -20 24 -6 3 5 -1 11 -9 15 -9 3 -15 0 -15 -9z"/>
<path d="M2139 5918 c-81 -102 -135 -200 -124 -225 5 -10 7 -24 6 -30 -4 -24
14 -12 44 29 29 41 148 201 168 226 6 8 6 12 -1 12 -5 0 -33 -30 -61 -66 -28
-37 -51 -60 -51 -52 0 8 9 26 20 39 11 13 34 40 50 60 27 33 41 89 22 89 -4 0
-37 -37 -73 -82z m-29 -136 c0 -5 -9 -17 -20 -27 -23 -21 -26 -14 -8 15 13 20
28 27 28 12z"/>
<path d="M1916 5732 c-10 -17 19 -42 51 -45 18 -1 33 -5 33 -9 0 -5 4 -8 10
-8 5 0 1 15 -8 33 -14 23 -27 33 -49 35 -17 2 -34 -1 -37 -6z m66 -34 c-7 -7
-12 -8 -12 -2 0 14 12 26 19 19 2 -3 -1 -11 -7 -17z"/>
<path d="M1831 5671 c-28 -8 -41 -31 -17 -31 9 0 30 9 48 20 25 15 28 20 13
19 -11 -1 -31 -4 -44 -8z"/>
<path d="M1459 5522 c-12 -2 -18 -20 -22 -75 -4 -40 -9 -81 -12 -93 -10 -32
19 -54 71 -54 41 0 44 2 35 19 -13 23 0 177 15 174 5 -1 10 7 10 17 0 16 -7
19 -41 17 -22 -1 -47 -3 -56 -5z"/>
<path d="M1819 5471 c10 -17 9 -21 -4 -21 -8 0 -15 -4 -15 -10 0 -5 5 -10 10
-10 6 0 10 -14 10 -31 0 -16 -4 -28 -9 -24 -5 3 -12 -4 -16 -15 -4 -11 -15
-20 -27 -20 -18 0 -19 -2 -7 -17 10 -11 10 -14 2 -9 -9 5 -13 1 -13 -11 0 -15
-2 -16 -10 -3 -7 11 -14 12 -27 4 -29 -18 -27 -34 6 -34 62 0 147 127 125 187
-5 15 -15 28 -22 31 -11 3 -12 0 -3 -17z"/>
<path d="M1632 5468 c-19 -19 -14 -30 9 -17 14 7 24 8 31 1 17 -17 1 -42 -27
-42 -22 0 -38 -19 -17 -21 4 0 17 -2 29 -5 25 -4 30 1 37 39 3 20 -1 31 -17
42 -26 18 -30 18 -45 3z"/>
<path d="M1735 5430 c-3 -6 1 -7 9 -4 18 7 21 14 7 14 -6 0 -13 -4 -16 -10z"/>
<path d="M1673 5353 c-15 -5 -17 -23 -4 -23 5 0 11 7 15 15 3 8 4 15 3 14 -1
0 -8 -3 -14 -6z"/>
<path d="M5860 5182 c0 -10 -4 -22 -10 -28 -5 -5 -10 -29 -12 -54 l-3 -45 35
0 c39 0 38 -3 20 88 -11 53 -30 79 -30 39z"/>
<path d="M5220 5041 c0 -6 5 -13 10 -16 6 -3 10 1 10 9 0 9 -4 16 -10 16 -5 0
-10 -4 -10 -9z"/>
<path d="M1665 5013 c-24 -6 -44 -23 -28 -23 7 0 23 4 37 10 19 7 41 4 88 -11
35 -12 67 -25 73 -30 12 -12 35 -11 35 2 0 5 -4 8 -9 5 -4 -3 -32 6 -62 20
-55 27 -100 36 -134 27z"/>
<path d="M1515 4970 c-29 -19 -15 -29 15 -10 8 5 17 5 20 0 3 -4 20 -2 39 6
39 16 37 30 -1 15 -15 -6 -29 -6 -34 -1 -6 6 -22 1 -39 -10z"/>
<path d="M1900 4961 c14 -11 30 -21 35 -21 11 0 -7 14 -40 31 -13 7 -12 3 5
-10z"/>
<path d="M1804 4870 c3 -41 5 -78 5 -82 1 -3 9 -9 19 -11 16 -4 16 -5 0 -6
-15 -1 -18 -11 -18 -72 0 -48 -3 -68 -11 -63 -8 4 -8 0 0 -15 7 -11 14 -21 17
-21 3 0 3 4 0 8 -7 11 123 -51 174 -83 23 -14 46 -23 52 -19 11 7 4 137 -11
176 l-8 22 -11 -21 -12 -21 -58 28 c-32 15 -63 34 -69 41 -15 19 -52 147 -43
151 4 2 -2 17 -12 33 l-19 30 5 -75z"/>
<path d="M1433 4883 c-42 -42 -50 -57 -64 -116 -8 -37 -12 -70 -8 -73 5 -2 11
12 14 33 14 80 28 109 78 156 28 26 46 47 40 47 -7 0 -33 -21 -60 -47z"/>
<path d="M1513 4813 c4 -17 -2 -25 -25 -36 -18 -9 -26 -17 -19 -21 6 -4 9 -11
6 -16 -3 -4 2 -13 10 -20 8 -7 15 -9 15 -5 0 4 7 1 17 -6 13 -11 17 -11 20 -1
5 14 52 16 87 2 22 -8 26 -7 26 8 0 34 -53 80 -73 64 -15 -13 -26 -6 -51 28
-17 23 -18 23 -13 3z"/>
<path d="M1972 4770 c-9 -15 -9 -22 4 -35 19 -19 24 -19 24 0 0 8 -8 15 -17
16 -17 0 -17 1 -1 7 10 4 14 12 10 19 -6 9 -11 7 -20 -7z"/>
<path d="M1355 4619 c-9 -79 6 -104 71 -114 43 -6 126 -35 227 -79 36 -16 48
-11 26 11 -5 5 -13 35 -16 66 l-6 55 -56 25 c-31 14 -73 30 -94 36 -38 10 -39
9 -33 -14 4 -14 1 -27 -6 -32 -18 -11 -16 -37 2 -45 13 -5 12 -7 -2 -7 -9 -1
-20 4 -23 9 -3 6 -12 10 -18 10 -7 0 -6 -4 3 -11 12 -8 12 -10 -5 -7 -14 2
-21 12 -23 33 -6 80 -14 114 -27 118 -10 4 -15 -10 -20 -54z"/>
<path d="M1425 4600 c-3 -6 1 -7 9 -4 18 7 21 14 7 14 -6 0 -13 -4 -16 -10z"/>
<path d="M3164 4595 c-10 -8 -14 -15 -8 -15 6 0 17 7 24 15 16 19 9 19 -16 0z"/>
<path d="M1753 4480 c-1 -10 5 -21 14 -24 12 -5 13 -4 5 7 -7 8 -9 16 -6 19 3
3 1 8 -3 11 -5 3 -9 -3 -10 -13z"/>
<path d="M1813 4450 c0 -23 3 -26 14 -15 7 8 13 18 13 23 0 6 -6 12 -13 15 -9
3 -14 -4 -14 -23z"/>
<path d="M1466 4444 c-4 -10 -1 -14 6 -12 15 5 23 28 10 28 -5 0 -13 -7 -16
-16z"/>
<path d="M1486 4383 c-6 -14 -5 -15 5 -6 7 7 10 15 7 18 -3 3 -9 -2 -12 -12z"/>
<path d="M1806 4378 c-16 -9 -14 -13 20 -32 53 -30 74 -37 74 -26 0 6 -6 10
-14 10 -8 0 -17 8 -20 18 -9 26 -39 42 -60 30z"/>
<path d="M1380 4364 c0 -14 3 -14 15 -4 8 7 15 14 15 16 0 2 -7 4 -15 4 -8 0
-15 -7 -15 -16z"/>
<path d="M1277 4213 c-12 -11 -7 -33 7 -33 12 0 26 20 26 36 0 7 -26 5 -33 -3z"/>
<path d="M1235 4178 c-2 -7 -5 -85 -8 -174 -3 -130 -7 -165 -20 -185 -9 -13
-17 -27 -17 -31 0 -15 32 5 40 26 7 17 9 12 9 -21 1 -24 6 -43 12 -43 7 0 8
26 3 82 l-7 81 37 -6 c27 -4 36 -2 36 9 0 10 -12 14 -41 14 l-40 0 6 130 c5
117 2 154 -10 118z"/>
<path d="M5294 4045 c20 -124 28 -160 41 -189 15 -31 15 -30 10 24 -8 82 -27
162 -43 185 -13 18 -14 17 -8 -20z"/>
<path d="M3020 3976 c-7 -10 -9 -31 -4 -61 6 -40 11 -49 40 -63 29 -13 34 -21
34 -49 0 -18 5 -33 10 -33 6 0 10 19 10 43 0 36 -4 46 -24 57 -19 10 -26 24
-31 61 -8 54 -17 66 -35 45z"/>
<path d="M2020 3950 c0 -5 5 -10 10 -10 6 0 10 5 10 10 0 6 -4 10 -10 10 -5 0
-10 -4 -10 -10z"/>
<path d="M4199 3853 c-9 -11 -9 -14 -2 -10 8 5 22 -12 42 -51 17 -33 36 -66
43 -73 7 -8 19 -26 27 -41 20 -40 27 -25 7 16 -9 19 -16 38 -16 43 0 23 -61
133 -74 133 -7 0 -20 -8 -27 -17z"/>
<path d="M4135 3830 c-13 -6 -15 -9 -5 -9 8 0 22 4 30 9 18 12 2 12 -25 0z"/>
<path d="M4475 3830 c3 -5 8 -10 11 -10 2 0 4 5 4 10 0 6 -5 10 -11 10 -5 0
-7 -4 -4 -10z"/>
<path d="M4334 3796 c-4 -10 -2 -22 4 -28 8 -8 13 -7 18 6 4 10 2 22 -4 28 -8
8 -13 7 -18 -6z"/>
<path d="M1550 3769 c0 -5 5 -7 10 -4 6 3 10 8 10 11 0 2 -4 4 -10 4 -5 0 -10
-5 -10 -11z"/>
<path d="M1320 3755 c0 -16 16 -20 24 -6 3 5 -1 11 -9 15 -9 3 -15 0 -15 -9z"/>
<path d="M1408 3705 c-9 -9 4 -55 13 -49 5 3 5 13 -1 23 -5 10 -6 21 -3 25 3
3 4 6 1 6 -2 0 -7 -2 -10 -5z"/>
<path d="M1238 3683 c6 -2 18 -2 25 0 6 3 1 5 -13 5 -14 0 -19 -2 -12 -5z"/>
<path d="M1208 3659 c-20 -11 -41 -79 -32 -103 4 -10 15 -16 28 -14 18 3 20 9
18 38 -2 19 -6 43 -9 54 -3 11 -1 16 5 12 5 -3 12 -18 14 -33 3 -16 8 -36 12
-45 6 -13 -1 -22 -26 -38 -20 -12 -26 -20 -16 -20 20 0 68 56 67 78 0 14 -2
13 -9 -3 -7 -17 -9 -14 -10 15 -4 58 -5 63 -15 66 -5 2 -18 -1 -27 -7z"/>
<path d="M1335 3638 c-3 -7 -6 -30 -8 -51 -1 -31 3 -42 21 -55 l23 -15 -3 63
c-2 40 -8 65 -15 68 -7 2 -15 -2 -18 -10z"/>
<path d="M4270 3619 l-35 -20 30 6 c30 6 52 21 44 29 -2 2 -20 -5 -39 -15z"/>
<path d="M1288 3605 c-3 -14 -2 -25 2 -25 11 0 20 39 10 45 -4 3 -10 -6 -12
-20z"/>
<path d="M1259 3515 c-14 -15 -35 -25 -52 -25 -16 0 -26 -4 -22 -10 11 -18 44
-10 77 19 18 16 30 32 27 35 -4 4 -17 -5 -30 -19z"/>
<path d="M3017 3493 c-2 -4 -1 -17 3 -27 6 -19 7 -19 14 -1 7 19 -8 44 -17 28z"/>
<path d="M1235 3440 c-3 -5 -2 -10 4 -10 5 0 13 5 16 10 3 6 2 10 -4 10 -5 0
-13 -4 -16 -10z"/>
<path d="M5417 3430 c-3 -13 0 -20 9 -20 15 0 19 26 5 34 -5 3 -11 -3 -14 -14z"/>
<path d="M5421 3384 c0 -11 3 -14 6 -6 3 7 2 16 -1 19 -3 4 -6 -2 -5 -13z"/>
<path d="M1975 3337 c-8 -4 -15 -16 -15 -26 0 -10 -7 -24 -15 -31 -8 -7 -15
-22 -15 -34 0 -19 -5 -21 -38 -18 -26 3 -42 -1 -51 -12 -11 -14 -11 -16 3 -16
10 0 14 -4 11 -10 -3 -5 1 -10 9 -10 8 0 18 5 22 11 4 7 21 9 42 5 27 -4 32
-2 24 6 -14 14 -16 62 -3 53 9 -5 42 11 100 46 11 8 21 19 21 25 0 14 -74 23
-95 11z"/>
<path d="M3691 3341 c-10 -7 -11 -13 -2 -27 6 -11 11 -17 12 -14 2 7 7 50 5
50 0 0 -7 -4 -15 -9z"/>
<path d="M5979 3333 c-13 -16 -12 -17 4 -4 16 13 21 21 13 21 -2 0 -10 -8 -17
-17z"/>
<path d="M6049 3324 c-19 -14 -41 -29 -49 -34 -8 -5 -12 -12 -8 -15 8 -8 85
44 92 63 7 17 5 16 -35 -14z"/>
<path d="M2090 3328 c0 -12 23 -27 126 -88 36 -21 53 -79 28 -93 -8 -4 -13
-20 -13 -35 1 -21 2 -23 6 -7 6 21 29 39 52 40 45 1 31 95 -14 95 -13 0 -25 4
-27 8 -3 9 -142 92 -152 92 -3 0 -6 -6 -6 -12z"/>
<path d="M4480 3328 c0 -7 5 -20 10 -28 8 -12 10 -11 10 7 0 12 -4 25 -10 28
-5 3 -10 0 -10 -7z"/>
<path d="M5425 3330 c3 -5 11 -10 16 -10 6 0 7 5 4 10 -3 6 -11 10 -16 10 -6
0 -7 -4 -4 -10z"/>
<path d="M3656 3286 c2 -22 7 -42 11 -45 3 -3 3 4 0 17 -3 12 -1 22 4 22 5 0
9 8 9 18 0 14 -2 14 -9 3 -7 -11 -10 -10 -14 5 -3 10 -4 1 -1 -20z"/>
<path d="M5186 3272 c-2 -4 -1 -14 5 -22 7 -12 9 -10 9 8 0 23 -5 28 -14 14z"/>
<path d="M2010 3257 c0 -11 69 -52 75 -45 2 2 -15 15 -36 30 -23 16 -39 23
-39 15z"/>
<path d="M5724 3165 c21 -16 32 -13 21 4 -3 6 -14 11 -23 11 -15 -1 -15 -2 2
-15z"/>
<path d="M5795 3140 c27 -12 35 -12 35 0 0 6 -12 10 -27 9 -25 0 -26 -1 -8 -9z"/>
<path d="M2086 3105 c4 -8 13 -15 21 -15 8 0 17 -9 20 -19 6 -25 32 -35 39
-16 4 8 10 12 15 9 5 -3 9 0 9 5 0 6 -7 11 -15 11 -8 0 -29 9 -47 20 -39 24
-49 25 -42 5z"/>
<path d="M3623 3055 c0 -8 4 -12 9 -9 5 3 6 10 3 15 -9 13 -12 11 -12 -6z"/>
<path d="M3645 2949 c-4 -6 -5 -12 -2 -15 2 -3 7 2 10 11 7 17 1 20 -8 4z"/>
<path d="M2855 2720 c-3 -5 -1 -10 4 -10 6 0 11 5 11 10 0 6 -2 10 -4 10 -3 0
-8 -4 -11 -10z"/>
<path d="M4705 2400 c-3 -5 1 -10 10 -10 9 0 13 5 10 10 -3 6 -8 10 -10 10 -2
0 -7 -4 -10 -10z"/>
<path d="M4766 2297 c3 -10 9 -15 12 -12 3 3 0 11 -7 18 -10 9 -11 8 -5 -6z"/>
<path d="M2815 1986 c-11 -71 -6 -81 43 -82 45 -2 49 1 62 46 8 27 6 30 -41
54 -27 14 -51 26 -53 26 -3 0 -8 -20 -11 -44z"/>
<path d="M3005 1610 c-3 -5 1 -10 10 -10 9 0 13 5 10 10 -3 6 -8 10 -10 10 -2
0 -7 -4 -10 -10z"/>
<path d="M3110 1000 c0 -5 5 -10 10 -10 6 0 10 5 10 10 0 6 -4 10 -10 10 -5 0
-10 -4 -10 -10z"/>
<path d="M3260 975 c-7 -9 -8 -15 -2 -15 5 0 12 7 16 15 3 8 4 15 2 15 -2 0
-9 -7 -16 -15z"/>
<path d="M3255 924 c-29 -39 -28 -50 5 -39 16 5 19 10 10 20 -9 10 -6 19 9 34
12 12 17 21 12 21 -5 0 -21 -16 -36 -36z"/>
</g>
</svg>
